<svg width="45" height="36" viewBox="0 0 45 36" fill="none" xmlns="http://www.w3.org/2000/svg">
<path d="M28.1248 27.4369H24.4032V15.2678C24.4032 15.0468 24.2224 14.866 24.0014 14.866H20.988C20.7671 14.866 20.5863 15.0468 20.5863 15.2678V27.4369H16.8748C16.5383 27.4369 16.3524 27.8236 16.5584 28.0848L22.1834 35.2014C22.2209 35.2494 22.269 35.2883 22.3238 35.315C22.3786 35.3417 22.4388 35.3556 22.4998 35.3556C22.5607 35.3556 22.6209 35.3417 22.6757 35.315C22.7306 35.2883 22.7786 35.2494 22.8162 35.2014L28.4412 28.0848C28.6471 27.8236 28.4613 27.4369 28.1248 27.4369Z" fill="#0062AE"/>
<path d="M37.5368 10.3811C35.2366 4.31417 29.3756 0 22.51 0C15.6445 0 9.78348 4.30915 7.48326 10.3761C3.17913 11.5061 0 15.4286 0 20.0893C0 25.639 4.49498 30.1339 10.0396 30.1339H12.0536C12.2746 30.1339 12.4554 29.9531 12.4554 29.7321V26.7188C12.4554 26.4978 12.2746 26.317 12.0536 26.317H10.0396C8.3471 26.317 6.75502 25.644 5.56975 24.4235C4.38951 23.2081 3.76172 21.5709 3.81696 19.8733C3.86216 18.5474 4.31417 17.3019 5.13281 16.2522C5.97154 15.1825 7.14676 14.404 8.45257 14.0575L10.356 13.5603L11.0541 11.7221C11.486 10.577 12.0887 9.50725 12.8471 8.53795C13.5958 7.57721 14.4826 6.73267 15.4788 6.03181C17.543 4.58036 19.9738 3.81194 22.51 3.81194C25.0463 3.81194 27.4771 4.58036 29.5413 6.03181C30.5407 6.73493 31.4247 7.57868 32.173 8.53795C32.9314 9.50725 33.534 10.582 33.966 11.7221L34.659 13.5552L36.5575 14.0575C39.2796 14.7907 41.183 17.2667 41.183 20.0893C41.183 21.7517 40.5352 23.3186 39.3599 24.4939C38.7836 25.0736 38.098 25.5332 37.3428 25.8461C36.5876 26.1591 35.7778 26.3191 34.9604 26.317H32.9464C32.7254 26.317 32.5446 26.4978 32.5446 26.7188V29.7321C32.5446 29.9531 32.7254 30.1339 32.9464 30.1339H34.9604C40.505 30.1339 45 25.639 45 20.0893C45 15.4336 41.8309 11.5162 37.5368 10.3811Z" fill="#0062AE"/>
</svg>
