<svg width="24" height="19" viewBox="0 0 24 19" fill="none" xmlns="http://www.w3.org/2000/svg">
<path d="M22.2857 0.548218H1.71429C1.25963 0.548218 0.823594 0.741794 0.502103 1.08636C0.180612 1.43093 0 1.89826 0 2.38555V17.0842C0 17.5715 0.180612 18.0389 0.502103 18.3834C0.823594 18.728 1.25963 18.9216 1.71429 18.9216H22.2857C22.7404 18.9216 23.1764 18.728 23.4979 18.3834C23.8194 18.0389 24 17.5715 24 17.0842V2.38555C24 1.89826 23.8194 1.43093 23.4979 1.08636C23.1764 0.741794 22.7404 0.548218 22.2857 0.548218ZM20.4 2.38555L12 8.61412L3.6 2.38555H20.4ZM1.71429 17.0842V3.22154L11.5114 10.4882C11.6549 10.5949 11.8254 10.6521 12 10.6521C12.1746 10.6521 12.3451 10.5949 12.4886 10.4882L22.2857 3.22154V17.0842H1.71429Z" fill="#0062AE"/>
</svg>
