<svg width="15" height="21" viewBox="0 0 15 21" fill="none" xmlns="http://www.w3.org/2000/svg">
<path d="M7.28192 2.9177C6.58137 2.9177 5.89655 3.12543 5.31406 3.51464C4.73158 3.90385 4.27758 4.45704 4.00949 5.10426C3.7414 5.75149 3.67126 6.46368 3.80793 7.15077C3.9446 7.83786 4.28195 8.46899 4.77731 8.96435C5.27268 9.45972 5.90381 9.79707 6.5909 9.93374C7.27799 10.0704 7.99018 10.0003 8.6374 9.73217C9.28463 9.46408 9.83782 9.01009 10.227 8.4276C10.6162 7.84512 10.824 7.1603 10.824 6.45975C10.824 5.52034 10.4508 4.6194 9.78653 3.95514C9.12226 3.29088 8.22133 2.9177 7.28192 2.9177ZM7.28192 8.76548C6.82589 8.76548 6.3801 8.63025 6.00092 8.37689C5.62175 8.12354 5.32622 7.76343 5.1517 7.34211C4.97719 6.92079 4.93152 6.45719 5.02049 6.00992C5.10946 5.56265 5.32906 5.15181 5.65152 4.82935C5.97398 4.50689 6.38482 4.28729 6.83209 4.19832C7.27936 4.10935 7.74297 4.15501 8.16429 4.32953C8.5856 4.50404 8.94571 4.79957 9.19906 5.17875C9.45242 5.55793 9.58765 6.00372 9.58765 6.45975C9.58601 7.07019 9.34237 7.65508 8.91014 8.08615C8.47791 8.51722 7.89237 8.7593 7.28192 8.7593V8.76548Z" fill="#0062AE"/>
<path d="M7.28191 6.11928e-10C5.35647 0.00160819 3.5099 0.765086 2.14551 2.12368C0.781124 3.48228 0.00979802 5.32558 0 7.251C0 10.1378 1.61958 12.5548 2.80644 14.3166L3.0228 14.638C4.20365 16.3494 5.47044 18 6.81829 19.5833L7.28809 20.1334L7.75789 19.5833C9.10557 17.9998 10.3724 16.3493 11.5534 14.638L11.7697 14.3104C12.9504 12.5486 14.57 10.1378 14.57 7.251C14.5602 5.32451 13.788 3.48027 12.4223 2.1215C11.0566 0.762732 9.20842 -2.49465e-05 7.28191 6.11928e-10ZM10.7374 13.5995L10.5149 13.9271C9.45165 15.522 8.04224 17.3084 7.28191 18.1924C6.55248 17.3084 5.11217 15.522 4.04894 13.9271L3.83258 13.5995C2.73844 11.9676 1.23632 9.736 1.23632 7.22627C1.23632 6.43236 1.39269 5.64621 1.69651 4.91273C2.00033 4.17924 2.44565 3.51278 3.00703 2.9514C3.56842 2.39001 4.23488 1.9447 4.96836 1.64088C5.70185 1.33706 6.48799 1.18068 7.28191 1.18068C8.07583 1.18068 8.86197 1.33706 9.59546 1.64088C10.3289 1.9447 10.9954 2.39001 11.5568 2.9514C12.1182 3.51278 12.5635 4.17924 12.8673 4.91273C13.1711 5.64621 13.3275 6.43236 13.3275 7.22627C13.3275 9.76073 11.8316 11.9923 10.7374 13.5995Z" fill="#0062AE"/>
</svg>
