<svg width="18" height="21" viewBox="0 0 18 21" fill="none" xmlns="http://www.w3.org/2000/svg">
<path d="M15.9238 20.5482H15.8062C2.20732 19.661 0.276492 6.64261 0.00659168 2.66957C-0.0151559 2.36066 0.0170338 2.04992 0.101316 1.75515C0.185599 1.46038 0.320318 1.18738 0.497754 0.951784C0.67519 0.716188 0.891856 0.52263 1.13534 0.382201C1.37882 0.241771 1.64433 0.157231 1.91666 0.133424H5.72987C6.00708 0.133119 6.27798 0.227261 6.50748 0.403654C6.73699 0.580048 6.91452 0.830566 7.01709 1.12276L8.06901 4.05935C8.17029 4.3448 8.19543 4.65772 8.14129 4.95924C8.08715 5.26076 7.95613 5.5376 7.7645 5.75535L6.29043 7.4435C6.52069 8.92809 7.14732 10.2966 8.08554 11.3639C9.02377 12.4312 10.2283 13.1458 11.5362 13.4109L13.0379 11.7228C13.2328 11.5077 13.4791 11.3626 13.7461 11.3053C14.0132 11.2481 14.2892 11.2813 14.5397 11.4008L17.1487 12.5865C17.4024 12.7065 17.6188 12.9095 17.7704 13.1696C17.922 13.4297 18.0019 13.7351 18 14.0469V18.1927C18 18.8174 17.7812 19.4166 17.3919 19.8583C17.0025 20.3001 16.4744 20.5482 15.9238 20.5482ZM2.08275 1.70379C1.89921 1.70379 1.72318 1.78652 1.5934 1.93377C1.46361 2.08102 1.3907 2.28074 1.3907 2.48898V2.55179C1.70904 7.20009 3.7506 18.1927 15.8823 18.9779C15.9732 18.9842 16.0643 18.9702 16.1505 18.9365C16.2366 18.9028 16.316 18.8502 16.3841 18.7816C16.4523 18.7131 16.5079 18.6299 16.5476 18.5369C16.5874 18.4439 16.6106 18.343 16.6159 18.2398V14.0469L14.0068 12.8613L12.0206 15.0991L11.6884 15.0519C5.66758 14.1961 4.85096 7.36498 4.85096 7.29431L4.80944 6.91742L6.77487 4.66394L5.73679 1.70379H2.08275Z" fill="#0062AE"/>
</svg>
