<svg width="126" height="40" viewBox="0 0 126 40" fill="none" xmlns="http://www.w3.org/2000/svg">
<g clip-path="url(#clip0_35_245)">
<path d="M63.3114 32.381L65.4218 36.4286C64.4531 37.449 63.0347 38.2994 61.2011 38.9116C59.3675 39.5579 57.4301 39.864 55.4235 39.864C50.6492 39.864 46.7398 38.4014 43.7991 35.5103C40.8238 32.6191 39.3362 28.7756 39.3362 24.0137C39.3362 19.4218 40.7546 15.6463 43.5569 12.6531C46.3938 9.65991 50.3032 8.19733 55.2851 8.19733C59.2983 8.19733 62.4811 9.25175 64.7991 11.3266L62.3427 15.3062C60.2324 13.9456 57.8798 13.2313 55.2851 13.2313C52.3444 13.2313 49.9226 14.2177 47.9853 16.1565C46.0825 18.1293 45.1138 20.7483 45.1138 24.0137C45.1138 27.2109 46.1171 29.796 48.1236 31.8028C50.1302 33.8096 52.725 34.796 55.9078 34.796C58.6755 34.864 61.1319 34.0477 63.3114 32.381Z" fill="#489FDF"/>
<path d="M70.8534 39.4218V8.70752H76.3542V23.2653L88.6705 8.70752H95.2784L82.4432 22.9932L96.0742 39.3878H89.1203L76.3542 23.5715V39.3878H70.8534V39.4218Z" fill="#489FDF"/>
<path d="M100.814 39.4218V8.70752H106.315V23.2653L118.631 8.70752H125.239L112.404 22.9932L126.035 39.3878H119.081L106.315 23.5715V39.3878H100.814V39.4218Z" fill="#489FDF"/>
<path d="M6.85025 12.3129C6.95404 12.2449 7.05783 12.1429 7.05783 12.0068C6.95404 12.0068 6.85025 12.0408 6.78106 12.1429C6.71186 12.2109 6.64267 12.2789 6.53888 12.3469C6.67727 12.381 6.74646 12.381 6.85025 12.3129Z" fill="#F4EEE2"/>
<path d="M0.380627 38.4013C0.346031 38.6054 0.380627 38.7415 0.519013 38.8435C0.519013 38.7755 0.553609 38.7075 0.553609 38.6734C0.691994 38.2653 0.968765 37.9592 1.28013 37.653C0.899573 37.7551 0.44982 37.9932 0.380627 38.4013Z" fill="#F4EEE2"/>
<path d="M30.9986 39.3197C31.1716 39.3197 31.3791 39.3198 31.5521 39.2517C31.8635 39.1497 32.1748 38.8776 32.3478 38.5374C32.4862 38.2313 32.5554 37.8912 32.5554 37.415C32.59 35.6463 31.8289 33.9796 31.0332 32.449C30.6872 31.7687 30.272 31.0204 29.6839 30.4082C29.2342 29.932 28.6806 29.5578 28.1617 29.2177C27.8157 28.9796 27.5043 28.7415 27.1584 28.5034C26.4319 27.9592 23.0414 25.4422 23.0414 25.4422C23.0414 25.4422 22.3841 25 22.1073 24.7619C22.0727 24.7279 22.0035 24.6939 21.9689 24.6599C21.7959 24.898 21.5192 25.068 21.2078 25.068C21.1732 25.068 21.1732 25.068 21.1386 25.068C21.0694 25.068 21.0002 25.068 20.9656 25.034C21.0002 25.2381 20.931 25.4422 20.8272 25.6123C20.6889 25.8504 20.4813 26.0204 20.2737 26.0544C20.2391 26.0544 20.2045 26.0544 20.1353 26.0544C20.0661 26.0544 19.9969 26.0544 19.9277 26.0204C19.8931 26.2925 19.7548 26.4626 19.478 26.5646C19.3742 26.5987 19.2358 26.6327 19.132 26.6327C18.9244 26.6327 18.7169 26.5646 18.5093 26.4626C18.4401 26.4286 18.3709 26.3606 18.3017 26.2925C18.1979 26.6327 17.852 26.8027 17.6444 26.8027C17.4022 26.8027 17.1946 26.7007 17.0562 26.5306C16.987 26.8027 16.8141 27.2109 16.3643 27.2449H16.3297C16.1567 27.2449 15.9837 27.1429 15.8454 27.0068C15.707 26.9048 15.6032 26.7687 15.4994 26.6327C15.4648 26.7007 15.3956 26.8027 15.3264 26.8368C15.2572 26.9048 15.1188 27.0068 14.9805 27.0068H14.9459C14.7037 26.9728 14.5307 26.8027 14.3923 26.7007C14.2539 26.5646 14.1155 26.4286 14.0118 26.2585C13.8734 26.5646 13.6312 26.8368 13.389 26.8708C13.3544 26.8708 13.3544 26.8708 13.3198 26.8708C13.0777 26.8708 12.8701 26.7007 12.7663 26.4966C12.6625 26.2925 12.6279 26.0544 12.6279 25.8504C12.6279 25.3742 12.7317 24.6939 12.8701 24.1497C12.8355 24.0136 12.8009 23.8776 12.7663 23.7415C12.7317 23.5034 12.7663 23.1973 12.8009 22.9252C12.8355 22.7551 12.8355 22.5851 12.8355 22.415C12.8009 22.2449 12.8009 22.0749 12.8009 21.8708C12.8009 21.2245 12.8009 20.5783 12.9047 19.966C12.9047 19.864 12.9393 19.7279 13.0085 19.6259C13.1123 19.4558 13.3198 19.3878 13.4582 19.3197C14.5307 18.8776 15.707 18.3674 16.2605 17.347C16.5373 16.8027 16.6065 16.1905 16.6757 15.5783C16.7103 15.3402 16.7103 15.1021 16.7795 14.864C16.7795 14.7959 16.7449 14.7619 16.7103 14.6939C16.7103 14.6599 16.6757 14.6599 16.6757 14.6259C16.6065 14.3878 16.4681 14.1497 16.3643 13.9116C16.3643 13.9116 16.3643 13.9116 16.3643 13.8776C16.2951 13.7755 16.2259 13.6395 16.1913 13.5374C16.1221 13.4014 16.0529 13.2993 15.9838 13.1633C15.9146 13.0272 15.8454 12.9252 15.7762 12.7891C15.6032 12.483 15.4648 12.2109 15.361 11.9388C15.361 11.9388 15.361 11.9388 15.361 11.9048C15.3264 11.7687 15.2572 11.6327 15.2226 11.5306C15.188 11.4626 15.188 11.3946 15.1534 11.3266C15.1534 11.2585 15.1188 11.1905 15.1188 11.1225C15.1188 11.0544 15.0842 10.9524 15.0842 10.8844C15.0842 10.8504 15.0842 10.8163 15.0842 10.7823V10.7483C15.0842 10.7483 15.0842 10.7483 15.0842 10.7143C15.0842 10.6463 15.0496 10.5442 15.0496 10.4762C15.0496 10.4422 15.0496 10.4082 15.0496 10.3742L15.0151 10.4082C14.6345 10.8504 14.0809 11.1225 13.4236 11.1565C13.3544 11.1565 13.2852 11.1565 13.216 11.1565C13.0777 11.1565 12.9393 11.1565 12.8009 11.1565L11.936 11.1225C11.8668 11.1225 11.8322 11.0544 11.8322 10.9864C11.8322 10.9184 11.8668 10.8844 11.9706 10.8844L12.8355 10.9184C13.0431 10.9184 13.216 10.9524 13.4236 10.9184C13.9772 10.8844 14.4961 10.6463 14.8421 10.2721C15.1534 9.89798 15.2918 9.38778 15.188 8.9456C14.6345 9.1837 14.0464 9.31975 13.4582 9.35376C13.3198 9.35376 13.216 9.35376 13.0777 9.35376C12.9047 9.35376 12.7317 9.35376 12.5933 9.35376C12.2473 9.38778 11.8668 9.4558 11.5554 9.62587C11.4862 9.65989 11.417 9.62587 11.3824 9.55785C11.3478 9.48982 11.3824 9.42179 11.4516 9.38778C11.7976 9.21771 12.1782 9.11567 12.5933 9.11567C12.7663 9.11567 12.9393 9.11567 13.1123 9.11567C13.216 9.11567 13.3544 9.11567 13.4582 9.11567C14.0809 9.08166 14.6691 8.9456 15.2226 8.67349C15.2572 8.67349 15.2918 8.67349 15.3264 8.67349C15.361 8.67349 15.3956 8.70751 15.3956 8.74152C15.4994 9.01363 15.4994 9.31975 15.4302 9.62587C15.9492 9.08166 16.3297 8.4354 16.7103 7.6871C17.1946 6.76873 17.3676 6.02043 17.2638 5.34016C17.16 4.62587 16.7449 3.97961 16.1221 3.53744C15.6378 3.1973 14.2885 2.51703 13.3198 2.21091C13.7004 2.449 13.8734 2.6871 13.8388 2.95921C13.8388 3.06125 13.7696 3.16329 13.7004 3.26533C14.4961 3.23132 15.1188 3.50342 15.4648 3.70751C16.2605 4.1837 16.8487 5.03404 16.8487 5.74832C16.8487 8.09526 14.3231 8.50342 10.8289 9.08166C10.4829 9.14968 10.137 9.1837 9.791 9.25172C9.37584 9.31975 8.68392 9.52383 8.44174 10.068C8.44174 10.1021 8.40715 10.1361 8.40715 10.1701C8.37255 10.2381 8.33795 10.3402 8.30336 10.4082C8.23416 10.5102 8.13038 10.5783 8.02659 10.6463C7.81901 10.7823 7.57683 10.8844 7.33466 10.9864C6.85031 11.1905 6.40056 11.3946 6.19298 11.8027C6.08919 11.9728 6.08919 12.1769 6.08919 12.381C6.12379 12.415 6.12379 12.415 6.15838 12.415C6.19298 12.415 6.22758 12.381 6.22758 12.347L6.26217 12.3129L6.29677 12.2449C6.40056 12.1429 6.50435 12.0068 6.60814 11.9388C6.78112 11.8027 6.9887 11.7347 7.16168 11.7687C7.19627 11.7687 7.23087 11.8027 7.26547 11.8368C7.36926 12.1089 7.19627 12.381 6.9541 12.517C6.78112 12.6191 6.60814 12.5851 6.43515 12.5851C6.40056 12.5851 6.36596 12.5851 6.33136 12.5851C6.29677 12.6191 6.22758 12.6531 6.19298 12.6871C6.15838 12.6871 6.12379 12.6871 6.08919 12.6871C6.19298 13.0612 6.46975 13.4354 6.71192 13.7415C6.74652 13.8095 6.81571 13.8436 6.85031 13.8776C6.9887 13.9116 7.12708 13.7755 7.23087 13.6735C7.50764 13.3674 7.8882 13.0953 8.40715 12.8912C8.71851 12.7551 9.02988 12.7211 9.27205 12.8232C9.44504 12.8912 9.54883 12.9932 9.61802 13.1973C9.791 13.6055 9.51423 14.0136 9.16827 14.2517C8.8569 14.4558 8.47634 14.5238 8.09578 14.4898H7.99199C7.8536 14.4558 7.71522 14.4558 7.57683 14.4898C7.47304 14.5238 7.33466 14.5919 7.33466 14.7279C7.33466 15.2721 7.50764 15.3742 7.68062 15.4082C7.81901 15.4422 7.99199 15.4422 8.16497 15.4082C8.33795 15.4082 8.47634 15.3742 8.64932 15.4082C9.37584 15.5102 9.7564 16.2925 9.791 16.9728C9.8256 18.0612 9.23746 19.0136 8.64932 19.932C8.54553 20.068 8.47634 20.2381 8.37255 20.3742C7.81901 21.2925 7.36926 22.2449 7.05789 23.2653C6.78112 24.0817 6.50435 25.1701 6.81571 26.1905C6.85031 26.2585 6.88491 26.3606 6.88491 26.4286C6.9887 26.7007 7.05789 26.9388 7.05789 27.2449C7.05789 27.449 6.9887 27.6531 6.9195 27.8232C6.57354 28.7755 6.08919 29.83 5.63944 30.8504C5.18968 31.8708 4.70534 32.9252 4.35937 33.8436C4.32478 33.9796 4.25558 34.1497 4.18639 34.3538C3.97881 35.034 3.70204 35.8504 3.35608 36.2245C3.04471 36.5987 2.62955 36.9048 2.2144 37.2109C1.59166 37.6871 0.968928 38.1293 0.726753 38.8095C0.692157 38.9456 0.692157 39.0136 0.726753 39.0817C0.761349 39.1157 0.865138 39.2177 1.17651 39.2177C1.17651 39.1157 1.2111 39.0136 1.28029 38.9116C1.62626 38.2653 2.24899 37.8572 2.83713 37.483C2.90632 37.415 3.01011 37.381 3.07931 37.3129C3.32148 37.1769 3.59825 36.8027 3.90962 36.2925C4.01341 36.1225 7.05789 29.4218 8.02659 26.7007C7.47304 25.7823 7.26547 24.966 7.33466 24.2517C7.40385 23.4014 8.02659 22.449 9.02988 22.347C9.09907 22.347 9.16827 22.381 9.16827 22.449C9.16827 22.517 9.13367 22.5851 9.06448 22.5851C8.23416 22.6871 7.64603 23.5034 7.57683 24.2857C7.50764 24.966 7.71522 25.7483 8.26876 26.6327C8.30336 26.6667 8.30336 26.7007 8.26876 26.7347C7.36926 29.3197 4.29018 36.1565 4.1172 36.4286C3.94422 36.7347 3.56365 37.313 3.21769 37.517C3.1485 37.5851 3.04471 37.6191 2.97552 37.6871C2.38738 38.0612 1.79924 38.4354 1.48787 39.0476C1.41868 39.2177 1.38408 39.3198 1.45328 39.3878C1.55707 39.5238 1.93763 39.6259 2.2144 39.6259C2.2144 39.2177 2.35278 38.7755 2.66415 38.4354C2.97552 38.0612 3.45987 37.8232 3.90962 37.7891C3.97881 37.7891 4.048 37.8232 4.048 37.8912C4.048 37.9592 4.01341 38.0272 3.94422 38.0272C3.52906 38.0612 3.1485 38.2653 2.87173 38.6055C2.59496 38.9116 2.45657 39.2857 2.45657 39.6599C3.39067 39.7959 4.35937 39.7619 5.29347 39.5919C6.15838 37.347 6.9541 35.6803 7.61143 34.5578C7.74982 34.3197 7.9228 34.0476 8.09578 33.7415C8.47634 33.0953 8.8915 32.381 9.23746 31.8708C10.1024 30.5783 10.8635 29.2177 11.5208 27.7891C11.5554 27.7211 11.6246 27.6871 11.6938 27.7211C11.763 27.7551 11.7976 27.8232 11.763 27.8912C11.3478 28.7755 10.8981 29.6259 10.4137 30.4762C12.5587 32.9592 17.679 34.0136 20.1353 34.0817H20.3775C20.8272 35.2721 21.6576 36.4286 22.7646 37.415C22.8684 37.449 23.0068 37.449 23.1106 37.483C22.8684 37.2109 22.6263 36.9388 22.3841 36.6667C21.623 35.7483 20.931 34.83 20.7235 33.7075C20.6197 33.1633 20.6543 32.6191 20.8272 32.1089L21.0002 31.6327C21.0694 31.4286 21.1732 31.2585 21.3116 31.0885C21.8305 30.3061 22.6608 29.7619 23.5949 29.5919C24.0447 29.4898 24.5291 29.4898 25.0826 29.5238C26.1551 29.6259 27.2276 30 28.1271 30.6123C28.1963 30.6463 28.1963 30.7143 28.1617 30.7823C28.1271 30.8504 28.0579 30.8504 27.9887 30.8163C27.1238 30.2381 26.0859 29.864 25.048 29.7619C24.5291 29.6939 24.0447 29.7279 23.6295 29.7959C22.7646 29.966 22.0035 30.4762 21.5192 31.1905C21.0348 31.9048 20.8272 32.7891 21.0002 33.6395C21.1732 34.6939 21.8651 35.5783 22.5917 36.4966C23.3182 37.381 24.2177 38.3674 25.394 38.5374C25.4286 38.5374 25.4286 38.5374 25.4632 38.5374C25.4632 38.5034 25.4632 38.4694 25.4977 38.4354C25.5669 38.4014 25.6361 38.4014 25.6707 38.4694C25.7053 38.5374 25.7399 38.6055 25.7053 38.6735C25.6361 38.7755 25.5323 38.8095 25.4286 38.8095H25.394C24.6328 38.7075 24.0101 38.2993 23.4566 37.7891C23.4566 37.7891 23.422 37.7891 23.3874 37.7891C23.2144 37.7551 23.0414 37.7211 22.8684 37.6871C22.8338 37.6871 22.8338 37.7211 22.7992 37.7211C22.7646 37.7211 22.73 37.7211 22.73 37.6871L22.6954 37.6531C21.2424 37.415 19.7893 37.415 18.3709 37.483C17.9903 37.483 17.6098 37.551 17.2638 37.6191L16.987 37.6531C16.5027 37.7211 16.2259 38.1293 16.0875 38.3674C15.9146 38.6735 15.8454 38.9796 15.88 39.0476C15.9492 39.1837 16.0875 39.3198 16.2259 39.3878C16.1913 39.2857 16.1913 39.1837 16.2259 39.0817C16.3643 38.5034 16.8487 37.9592 17.4368 37.7891C17.506 37.7551 17.5752 37.7891 17.5752 37.8572C17.6098 37.9252 17.5752 37.9932 17.506 37.9932C16.987 38.1633 16.5719 38.6055 16.4681 39.1157C16.4681 39.1837 16.4335 39.2517 16.4681 39.2857C16.5719 39.4898 16.8833 39.6259 17.2638 39.7279C17.2638 39.6939 17.2292 39.6599 17.2292 39.6599C17.1946 39.4898 17.1946 39.3197 17.1946 39.1837C17.1946 39.0817 17.1946 38.9456 17.2638 38.8095C17.333 38.5374 17.5752 38.3334 17.8866 38.2313C18.1287 38.1633 18.3709 38.1293 18.7169 38.1633C18.7861 38.1633 18.8207 38.2313 18.8207 38.2993C18.8207 38.3674 18.7515 38.4014 18.6823 38.4014C18.4055 38.3674 18.1633 38.3674 17.9903 38.4354C17.7482 38.5034 17.5752 38.6735 17.5406 38.8776C17.506 38.9796 17.506 39.0817 17.506 39.1837C17.506 39.3197 17.506 39.4558 17.5406 39.5919C17.5752 39.6599 17.6098 39.7619 17.7136 39.7959C17.9903 39.83 18.3017 39.864 18.4747 39.864H18.5785C19.5126 39.932 20.4813 39.898 21.4154 39.864L26.5702 39.6599C26.7432 39.6599 26.9162 39.6599 27.0892 39.6259C27.1238 39.6259 27.1238 39.5919 27.1584 39.5919H27.5043C27.6081 39.5919 27.7119 39.5578 27.7811 39.4898C27.9541 39.3538 27.9887 39.0817 27.9195 38.8436C27.8503 38.6055 27.6427 38.4354 27.4351 38.1973C26.2935 37.0749 25.0826 36.0544 23.7679 35.1361C23.6987 35.1021 23.6987 35.034 23.7333 34.966C23.7679 34.898 23.8371 34.898 23.9063 34.932C25.221 35.8844 26.4664 36.9048 27.6081 38.0272C27.8157 38.2313 28.0233 38.4694 28.1271 38.7415C28.2309 38.9796 28.1963 39.3198 28.0233 39.5578L30.9986 39.3197ZM9.16827 11.4966C8.99528 11.4966 8.8223 11.4286 8.68392 11.2925C8.51094 11.0885 8.47634 10.7823 8.58013 10.5783C8.61472 10.5442 8.68392 10.5102 8.71851 10.5102C9.30665 10.7143 9.96398 10.7483 10.5521 10.5783C10.6213 10.5783 10.6905 10.6123 10.6905 10.6803C10.6905 10.7483 10.6559 10.8163 10.5867 10.8163C10.3099 10.8844 10.0332 10.9184 9.72181 10.9184C9.68721 11.1225 9.54883 11.3606 9.34125 11.4286C9.34125 11.4966 9.27206 11.4966 9.16827 11.4966ZM9.72181 14.5238C9.65262 14.5238 9.58342 14.4558 9.58342 14.4218C9.58342 14.3538 9.61802 14.2857 9.68721 14.2857C9.791 14.2857 10.4483 13.8436 10.4829 13.4014C10.5175 12.9932 9.96398 12.7551 9.47963 12.6191C9.41044 12.5851 9.37584 12.551 9.41044 12.483C9.44504 12.415 9.51423 12.381 9.54883 12.415C10.5867 12.7211 10.7597 13.1633 10.6905 13.5034C10.6559 14.0136 9.92939 14.5238 9.72181 14.5238ZM12.3165 15.9184C12.0744 16.1905 11.6938 16.3606 11.4516 16.3606C11.3132 16.5646 11.1057 16.7347 10.8635 16.8368C10.7597 16.8708 10.6559 16.9048 10.5521 16.9048C10.3791 16.9048 10.2408 16.8708 10.1024 16.8027C10.0332 16.7347 9.99858 16.6667 10.0332 16.5987C10.0678 16.5306 10.137 16.5306 10.2062 16.5306C10.4483 16.6667 10.6559 16.6327 10.7943 16.5646C10.9673 16.4966 11.1403 16.3606 11.244 16.1905C11.244 16.1905 11.244 16.1905 11.244 16.1565C11.244 16.1225 11.2786 16.0885 11.3132 16.0885C11.3824 15.9524 11.3824 15.6123 11.2786 15.3061C11.2095 15.1361 11.1057 14.932 10.8635 14.83C10.7943 14.7959 10.7597 14.7279 10.7943 14.6599C10.8289 14.5919 10.8981 14.5578 10.9673 14.5919C11.2095 14.6939 11.417 14.898 11.5208 15.2041C11.6246 15.5102 11.6592 15.8163 11.59 16.0544C11.763 16.0204 11.9706 15.9184 12.1436 15.7143C12.1781 15.6463 12.2473 15.5783 12.2819 15.5102C12.2819 15.4762 12.2819 15.4422 12.3165 15.4422C12.4203 15.2041 12.3857 14.898 12.2473 14.5578C12.2127 14.4558 11.9706 14.0817 11.8668 14.0476C11.7976 14.0136 11.763 13.9456 11.7976 13.8776C11.8322 13.8095 11.9014 13.7755 11.9706 13.8095C12.2127 13.9116 12.4895 14.4558 12.4895 14.4558C12.6279 14.7959 12.6625 15.068 12.6279 15.3061C12.8355 15.2041 13.1123 15 13.2506 14.6939C13.389 14.3198 13.216 13.9116 12.8009 13.4354C12.7663 13.4014 12.7663 13.2993 12.8009 13.2653C12.8355 13.2313 12.9393 13.2313 12.9739 13.2653C13.4236 13.7755 13.5966 14.2177 13.5274 14.6259C13.7004 14.5238 13.9426 14.3538 14.0809 14.0817C14.2193 13.7755 14.2193 13.4694 14.0118 13.1633C13.908 13.0272 13.735 12.9592 13.5966 12.9932C13.5274 13.0272 13.4582 12.9592 13.4582 12.9252C13.4236 12.8572 13.4928 12.7891 13.5274 12.7891C13.7696 12.7211 14.0809 12.8232 14.2193 13.0612C14.5307 13.5374 14.4269 13.9456 14.2885 14.2177C14.0809 14.5919 13.7004 14.864 13.4236 14.932C13.216 15.3061 12.8009 15.5102 12.5587 15.5783C12.4203 15.7483 12.3511 15.8504 12.3165 15.9184Z" fill="#F4EEE2"/>
<path d="M8.78762 10.7823C8.75303 10.9184 8.78762 11.0545 8.89141 11.1565C8.9952 11.2585 9.20278 11.3266 9.34117 11.2585C9.47955 11.1905 9.54874 11.0885 9.58334 10.9524C9.30657 10.8844 9.0298 10.8504 8.78762 10.7823Z" fill="#F4EEE2"/>
<path d="M13.5274 2.95915C13.4928 3.0952 13.3544 3.23126 13.1468 3.3333C12.9046 3.36731 12.6625 3.43534 12.4203 3.57139C12.4549 3.40133 12.4549 3.26527 12.4895 3.0952C12.5241 2.78908 12.5587 2.48296 12.5587 2.14282C13.4236 2.55099 13.562 2.82309 13.5274 2.95915Z" fill="#F4EEE2"/>
<path d="M7.36917 1.08845C7.85352 0.612258 8.61464 0.340149 9.65253 0.340149C9.68712 0.340149 9.72172 0.340149 9.72172 0.340149C10.4482 0.340149 11.7629 0.510217 12.1435 1.4626C12.1781 1.53063 12.1781 1.56464 12.2127 1.63267C10.5174 1.56464 8.75302 1.53063 7.0578 1.63267C7.12699 1.42858 7.23078 1.25852 7.36917 1.08845Z" fill="#F4EEE2"/>
<path d="M20.931 21.5305C20.7926 21.6326 20.585 21.6666 20.412 21.6326C20.585 22.0067 20.8618 22.4149 21.104 22.687C21.4153 23.0952 21.7613 23.3333 22.0726 23.4353C22.3494 23.5033 22.6262 23.5033 22.7992 23.3673C22.9722 23.2312 23.0067 22.789 22.8684 22.585C22.2802 22.1088 21.7267 21.5986 21.1731 21.0544C21.1731 21.2244 21.0694 21.3945 20.931 21.5305Z" fill="#F4AF23"/>
<path d="M13.8386 25.9863C13.7003 25.6802 13.6657 25.3061 13.6657 24.8299C13.5965 24.8299 13.5273 24.8299 13.4581 24.7959C13.2851 24.7278 13.1467 24.6258 13.0429 24.4557C12.9391 24.8979 12.8699 25.4421 12.8699 25.8163C12.8699 26.0203 12.8699 26.1904 12.9737 26.3605C13.0429 26.4965 13.1813 26.6326 13.3543 26.5986C13.4581 26.5986 13.6657 26.3605 13.8386 25.9863Z" fill="#F4AF23"/>
<path d="M24.8058 14.6259C24.702 14.5578 24.529 14.5238 24.3906 14.5919C24.3214 14.7279 24.2868 14.864 24.2176 14.966C24.0793 15.2381 23.9409 15.5102 23.7679 15.8163C23.6295 16.0544 23.5257 16.2925 23.3873 16.5306C23.5949 16.5987 23.8025 16.6667 23.9755 16.7687C24.1139 16.8368 24.2177 16.9048 24.356 16.9728L24.7366 16.2585C24.9442 15.8163 25.1518 15.4422 25.048 15.034C25.0134 14.864 24.9096 14.7279 24.8058 14.6259Z" fill="#F4AF23"/>
<path d="M25.29 15.3402C25.2555 15.7143 25.0825 16.0885 24.9095 16.3606L24.5635 17.0749C24.7019 17.1769 24.8749 17.2789 25.0133 17.415C25.1171 17.517 25.1863 17.6191 25.2555 17.7211C26.155 16.8708 27.0891 15.9864 27.5734 14.83C27.8502 14.1497 27.8502 12.8912 27.7118 12.0068C27.0199 13.1633 26.2242 14.2517 25.29 15.3402Z" fill="#F4AF23"/>
<path d="M16.7793 26.3604C16.7793 26.3264 16.7793 26.3264 16.7793 26.3264C16.6755 26.1904 16.6063 26.0883 16.5371 25.9523C16.2949 25.5101 16.0182 24.9659 16.0182 24.3877C15.949 24.3536 15.8798 24.3196 15.8106 24.2856C15.6722 24.4897 15.43 24.6258 15.1187 24.6598C15.1533 25.5101 15.257 26.3604 15.8798 26.8707C15.9836 26.9727 16.122 27.0747 16.2257 27.0407C16.5717 26.9727 16.7101 26.6666 16.7793 26.3604Z" fill="#F4AF23"/>
<path d="M24.2176 2.72104C23.0413 4.79587 21.6575 6.76866 20.1006 8.60539C20.1352 8.6394 20.2044 8.70743 20.239 8.77546C20.3774 8.97954 20.4466 9.25165 20.4466 9.48975L21.7267 8.06117C21.7613 8.02716 21.7958 7.99315 21.8304 7.95913L24.1138 4.72784C24.6327 3.97954 25.1863 3.1292 24.9441 2.27886C24.9095 2.10879 24.8057 1.97274 24.6673 1.90471C24.6328 1.8707 24.5982 1.8707 24.5636 1.8707C24.529 2.17682 24.3906 2.44893 24.2176 2.72104Z" fill="#F4AF23"/>
<path d="M20.5849 25.4761C20.6887 25.3061 20.7233 25.068 20.6541 24.9319C20.4465 24.8639 20.2735 24.7278 20.1005 24.5578C19.8584 24.2857 19.6854 23.9115 19.547 23.6054C19.4778 23.4693 19.4086 23.2653 19.3048 23.0612C19.2702 22.9932 19.2356 22.9251 19.2356 22.8911C19.1664 23.0272 19.0626 23.1632 18.8897 23.2653C18.7859 23.3333 18.6821 23.3673 18.5783 23.4013C18.5783 23.7755 18.6821 24.1836 18.8205 24.5578C18.8897 24.7959 18.9935 25.068 19.1318 25.2721C19.201 25.3741 19.3048 25.4421 19.374 25.5102C19.6854 25.7483 19.9622 25.8503 20.2043 25.8163C20.3427 25.7823 20.4811 25.6462 20.5849 25.4761Z" fill="#F4AF23"/>
<path d="M14.3231 24.4218C14.2885 24.4898 14.2539 24.5578 14.1847 24.6258C14.1155 24.7279 13.9771 24.7619 13.8734 24.7959C13.8734 25.3741 13.9425 25.8163 14.1501 26.0884C14.2539 26.2585 14.3923 26.3605 14.5307 26.4966C14.6691 26.6326 14.8075 26.7347 14.9458 26.7687C14.9804 26.7687 15.0496 26.7347 15.1188 26.6326C15.2226 26.4966 15.2918 26.3945 15.2918 26.3265C15.0496 25.8163 14.9804 25.2041 14.9458 24.5918C14.7037 24.6258 14.4961 24.5238 14.3231 24.4218Z" fill="#F4AF23"/>
<path d="M21.173 24.7959C21.4152 24.7619 21.6573 24.6258 21.7957 24.4217C21.9341 24.1836 21.9687 23.9115 21.8649 23.6054C21.5536 23.4693 21.2422 23.2312 20.9308 22.8571C20.7232 22.585 20.4811 22.2448 20.3081 21.8707C20.2735 22.0408 20.2389 22.2108 20.1697 22.3469C20.0659 22.517 19.8237 22.653 19.6162 22.687C19.5816 22.687 19.5124 22.687 19.4778 22.687C19.5124 22.7891 19.547 22.8571 19.5816 22.9591C19.6508 23.1632 19.7545 23.3673 19.8237 23.5034C19.9621 23.8095 20.1351 24.1496 20.3427 24.4217C20.5503 24.6598 20.8616 24.7959 21.173 24.7959Z" fill="#F4AF23"/>
<path d="M17.5752 26.5647C17.7136 26.5647 18.025 26.4626 18.0596 26.0885C17.9904 25.9864 17.8866 25.8844 17.8174 25.7823C17.4023 25.2041 17.1255 24.6259 17.0217 24.0817C16.9179 24.2857 16.7449 24.4218 16.5028 24.4218C16.4336 24.4218 16.3298 24.4218 16.2606 24.3878C16.2952 24.864 16.5374 25.3742 16.7449 25.7483C16.9525 26.1565 17.2293 26.5647 17.5752 26.5647Z" fill="#F4AF23"/>
<path d="M18.6131 26.2585C18.8553 26.3945 19.132 26.4625 19.3742 26.3605C19.5818 26.2585 19.6856 26.1564 19.6856 25.9523C19.5472 25.8843 19.4088 25.7823 19.2358 25.6802C19.132 25.6122 19.0628 25.5102 18.959 25.4081C18.7515 25.17 18.6823 24.8639 18.5785 24.6258C18.4747 24.2516 18.3363 23.8435 18.3363 23.4353C18.2671 23.4353 18.1979 23.4353 18.1633 23.4013C18.1287 23.6394 17.9903 23.8775 17.7828 24.0136C17.6444 24.0816 17.4714 24.1156 17.2984 24.0816C17.4022 24.5918 17.6444 25.102 18.0249 25.6462C18.1633 25.8843 18.3709 26.0884 18.6131 26.2585Z" fill="#F4AF23"/>
<path d="M23.7331 13.6054C23.2833 14.3537 22.7644 15.102 22.2454 15.8163C22.453 15.9864 22.5914 16.1904 22.6952 16.4625C22.8336 16.4285 23.0065 16.4625 23.1795 16.4625C23.3179 16.2245 23.4563 15.9523 23.5947 15.6802C23.7331 15.4081 23.906 15.102 24.0098 14.8299C24.1136 14.6258 24.2174 14.3877 24.2866 14.1836C24.3558 13.9455 24.3558 13.6734 24.3558 13.4353C24.3558 13.2993 24.3558 13.1292 24.3212 13.0272C24.2866 12.9591 24.2174 12.8571 24.1482 12.8231C24.1136 12.9251 24.079 12.9932 24.0444 13.0952C23.9406 13.2653 23.8368 13.4353 23.7331 13.6054Z" fill="#F4AF23"/>
<path d="M24.0446 11.4626C24.1138 11.5986 24.1484 11.7347 24.1484 11.8707C24.183 12.1088 24.183 12.3469 24.1138 12.585C24.2522 12.619 24.3906 12.7551 24.4598 12.9252C24.4598 12.9592 24.4944 12.9932 24.4944 13.0272C24.6327 12.7891 24.8403 12.551 25.0479 12.3469C25.1171 12.2789 25.1863 12.2109 25.2555 12.1428C25.8782 11.4626 26.328 10.6462 26.7777 9.82992C27.0199 9.42175 27.2621 8.97958 27.5042 8.57141C27.5734 8.46937 27.6426 8.36733 27.7118 8.26529C27.781 8.12924 27.8848 7.99318 27.954 7.85713C27.954 7.85713 27.954 7.82311 27.9886 7.82311C28.1616 7.55101 28.3 7.2789 28.4037 6.97277C28.5421 6.46257 28.3691 5.68026 28.0232 5.27209C27.0891 7.58502 25.7398 9.65985 24.0446 11.4626Z" fill="#F4AF23"/>
<path d="M23.1451 9.4558C23.0067 9.35376 22.9029 9.35376 22.7991 9.35376C22.3148 10.2721 21.7267 11.0885 20.9655 11.8027C21.0347 11.9048 21.1039 12.0748 21.1385 12.2109C21.2077 12.551 21.1385 12.8912 20.9309 13.1293C21.0693 13.3674 21.2077 13.6395 21.3461 13.8776C22.1418 13.2313 22.557 12.347 23.0067 11.3946L23.1451 11.1225C23.1797 11.0544 23.2143 11.0204 23.2143 10.9524V10.9184C23.2143 10.8844 23.2489 10.8504 23.2489 10.8504C23.3527 10.6463 23.4219 10.4422 23.4219 10.2041C23.4911 9.93199 23.3527 9.62587 23.1451 9.4558Z" fill="#F4AF23"/>
<path d="M28.4037 8.2653C28.3345 8.16326 28.2653 8.09523 28.1615 8.06122C28.0923 8.19727 28.0231 8.29931 27.9193 8.43537C27.8502 8.53741 27.781 8.63945 27.7464 8.74149C27.5042 9.14965 27.262 9.59183 27.0198 9.99999C26.5701 10.8163 26.1203 11.6326 25.463 12.3469C25.3938 12.415 25.3246 12.483 25.2554 12.551C24.9441 12.8912 24.6327 13.1973 24.5635 13.6054C24.5635 13.8095 24.5289 14.0136 24.4943 14.2177C24.4943 14.2517 24.4943 14.2517 24.4597 14.2857C24.6327 14.2857 24.8057 14.3197 24.9441 14.3877C25.117 14.5238 25.2208 14.6939 25.29 14.932C26.4317 13.5714 27.3658 12.1429 28.1269 10.6122C28.4729 9.96598 28.8534 9.0136 28.4037 8.2653Z" fill="#F4AF23"/>
<path d="M23.4219 11.1224C23.3873 11.1565 23.3873 11.2245 23.3527 11.2585L23.2143 11.5306C22.7645 12.517 22.3148 13.4354 21.4499 14.1156C21.4499 14.1496 21.4845 14.1496 21.4845 14.1837C21.5883 14.3877 21.692 14.6258 21.6229 14.8639C21.5883 14.966 21.5537 15.034 21.4845 15.102C21.4499 15.136 21.4153 15.2041 21.4153 15.2381C21.3807 15.3061 21.3807 15.4082 21.3461 15.4762C21.5883 15.4762 21.7958 15.5102 22.0034 15.6462C22.5224 14.932 23.0067 14.2177 23.4911 13.4694C23.5949 13.2993 23.6986 13.1292 23.7678 12.9592C23.9062 12.619 23.9754 12.2449 23.9062 11.8707C23.8716 11.5646 23.6986 11.2245 23.4219 11.1224Z" fill="#F4AF23"/>
<path d="M26.8469 0.544206C26.6393 0.612233 26.5009 0.816315 26.3971 0.986383C25.9474 1.73468 25.4976 2.61904 25.117 3.60543C24.9441 4.04761 24.6327 4.48978 24.3559 4.89795L22.3839 7.68706C22.4531 7.68706 22.5223 7.65305 22.5915 7.68706C22.9375 7.72108 23.145 8.06121 23.145 8.36734C23.1796 8.67346 23.0413 8.94557 22.9375 9.14965C22.9375 9.14965 22.9375 9.14965 22.9375 9.18366C23.0413 9.18366 23.145 9.21768 23.2488 9.2857C24.9786 7.0408 26.7431 4.72788 27.435 1.90475C27.5042 1.63264 27.5734 1.29251 27.4696 0.986383C27.3658 0.68026 27.089 0.476179 26.8469 0.544206Z" fill="#F4AF23"/>
<path d="M18.9243 7.17681C18.8205 7.21083 18.7513 7.24484 18.6821 7.31287C18.4053 7.48293 18.1977 7.75504 18.0247 7.99314C17.748 8.36729 17.229 9.11559 16.7447 9.86389C16.2603 10.5782 15.776 11.2925 15.4992 11.6666C15.5338 11.7346 15.5338 11.8027 15.5684 11.8707C15.603 11.9727 15.6376 12.0748 15.7068 12.1428C15.7068 12.1768 15.7414 12.1768 15.7414 12.2108C15.776 12.2789 15.8106 12.3469 15.8452 12.4149C15.8798 12.4489 15.8798 12.4829 15.9144 12.5169C15.949 12.585 15.9836 12.619 16.0182 12.687C16.0528 12.755 16.0874 12.8231 16.1219 12.8571C16.1219 12.8911 16.1565 12.9251 16.1565 12.9251C16.6755 12.0748 18.4053 9.96593 18.6129 9.72783C18.9243 9.35368 19.201 8.91151 19.4432 8.4013C19.7892 7.72103 19.8238 7.27885 19.547 7.10878C19.374 7.07477 19.201 7.10879 19.028 7.1428C18.9934 7.17681 18.9589 7.17681 18.9243 7.17681Z" fill="#F4AF23"/>
<path d="M23.8716 0.544212C23.5948 0.476185 23.2834 0.578225 23.0067 0.850334C22.7991 1.08843 22.6607 1.39455 22.5223 1.66666V1.70067C21.6574 3.53741 20.5503 5.2721 19.2703 6.87074C19.4086 6.87074 19.547 6.90476 19.6854 6.97278C20.1352 7.2789 19.9622 7.92516 19.7892 8.33333C19.8584 8.36734 19.9276 8.40135 19.9968 8.43537C21.519 6.63265 22.9029 4.65986 24.0792 2.58503C24.2867 2.21088 24.4943 1.83673 24.4943 1.42857C24.4597 1.08843 24.2521 0.646253 23.8716 0.544212Z" fill="#F4AF23"/>
<path d="M22.5221 7.89111H22.4876C22.3146 7.89111 22.1762 7.99315 22.0378 8.12921L22.0032 8.16322C22.0032 8.19724 21.9686 8.19724 21.9686 8.19724L21.934 8.23125L19.6852 10.6802C19.9274 10.5442 20.2388 10.5782 20.4464 10.7823C20.6193 10.9523 20.6885 11.2244 20.5848 11.4625C20.6539 11.4966 20.7231 11.5646 20.7923 11.6326C21.588 10.8843 22.2108 9.99996 22.6951 9.01356C22.7989 8.80948 22.9027 8.57139 22.8681 8.33329C22.8681 8.12921 22.7297 7.89111 22.5221 7.89111Z" fill="#F4AF23"/>
<path d="M27.6426 1.97281C26.9161 4.82995 25.1517 7.14288 23.4219 9.35376C23.664 9.59186 23.7332 9.96601 23.6986 10.2381C23.664 10.4762 23.5948 10.6803 23.5256 10.8844C23.6986 10.9524 23.837 11.0544 23.9408 11.2245C25.8436 9.14968 27.2967 6.76873 28.2653 4.08165C28.4383 3.63948 28.5767 3.12927 28.4729 2.65308C28.3345 2.24492 28.0232 2.00682 27.6426 1.97281Z" fill="#F4AF23"/>
<path d="M20.0316 8.91156C19.997 8.84353 19.9278 8.77551 19.8932 8.74149C19.824 8.67347 19.7548 8.63945 19.651 8.60544V8.63945C19.4088 9.14966 19.0975 9.62585 18.7861 10C18.6823 10.068 16.6411 12.517 16.2606 13.2653C16.2952 13.3333 16.3298 13.3673 16.3644 13.4354C16.3644 13.4354 16.3644 13.4694 16.399 13.4694C16.399 13.5034 16.4336 13.5034 16.4336 13.5374C16.4336 13.5374 16.4336 13.5714 16.4682 13.5714C16.5028 13.6395 16.5374 13.7075 16.5719 13.7755C16.5719 13.8095 16.6065 13.8435 16.6065 13.8435C16.6411 13.9116 16.6757 13.9796 16.7103 14.0476C16.7103 14.0816 16.7449 14.1156 16.7449 14.1156C16.7449 14.1497 16.7795 14.1497 16.7795 14.1837C16.8141 14.2517 16.8487 14.3197 16.8487 14.3878C17.1947 13.0612 18.1634 12.0068 19.0283 11.0544L20.2046 9.79591C20.2392 9.48979 20.2046 9.14966 20.0316 8.91156Z" fill="#F4AF23"/>
<path d="M21.2768 14.2857C21.1038 13.9116 20.8963 13.5374 20.6887 13.1973C20.6541 13.1633 20.6541 13.0952 20.6887 13.0612C20.8617 12.8571 20.9655 12.585 20.8963 12.2789C20.8271 11.9728 20.6541 11.7347 20.3773 11.6327C20.3427 11.6327 20.3081 11.5986 20.3081 11.5646C20.3081 11.5306 20.3081 11.4966 20.3081 11.4626C20.4119 11.3265 20.3773 11.0884 20.2735 10.9524C20.1351 10.8163 19.9276 10.8163 19.7546 10.9184C19.6854 10.9524 19.6162 10.9524 19.5816 10.8844C19.547 10.8503 19.547 10.8163 19.547 10.7823L19.201 11.2245C18.3707 12.1429 17.402 13.1973 17.0907 14.4558C17.0561 14.5238 17.0561 14.6259 17.0561 14.6939L16.9523 14.966C16.9177 15.1701 16.8831 15.3742 16.8831 15.6122C16.8139 16.2585 16.7447 16.9048 16.4333 17.483C15.8452 18.5714 14.5651 19.1157 13.5272 19.5578C13.3889 19.6259 13.2505 19.6939 13.1813 19.7619C13.1467 19.8299 13.1121 19.898 13.1121 20C13.0083 20.6122 13.0083 21.2585 13.0083 21.8708C13.0083 22.1429 13.0083 22.415 13.1467 22.585C13.2159 22.6871 13.3197 22.7211 13.4235 22.7211C13.4926 22.7211 13.5618 22.6871 13.631 22.585C13.6656 22.551 13.7002 22.517 13.7694 22.517C13.804 22.517 13.8732 22.551 13.8732 22.6191C13.9078 22.7891 14.1154 22.9252 14.2884 22.9592C14.3576 22.9592 14.4959 22.9932 14.5651 22.8571C14.5997 22.8231 14.5997 22.7891 14.6343 22.7891C14.6343 22.7891 14.6343 22.7891 14.6689 22.7891C14.7035 22.7891 14.7381 22.7891 14.7381 22.8231C14.8765 22.9592 15.1187 22.9932 15.3608 22.8912C15.603 22.7891 15.7414 22.6191 15.776 22.415C15.776 22.381 15.8106 22.3469 15.8452 22.3129C15.8798 22.2789 15.9144 22.2789 15.949 22.3129C16.1566 22.381 16.3987 22.3469 16.6063 22.1769C16.8139 22.0068 16.9177 21.7687 16.8485 21.5646C16.8485 21.5306 16.8485 21.4626 16.9177 21.4286C16.9523 21.3946 17.0215 21.3946 17.0561 21.4286C17.1945 21.5306 17.3674 21.4966 17.5058 21.3946C17.6096 21.3265 17.748 21.1565 17.6788 21.0204C17.6788 20.9864 17.6788 20.9184 17.7134 20.8844C17.748 20.8503 17.8172 20.8503 17.8518 20.8844C18.094 21.0204 18.3707 20.9524 18.5437 20.8163C18.7167 20.6803 18.8897 20.4762 18.8551 20.2041C18.8551 20.1361 18.8897 20.102 18.9243 20.068C18.9589 20.034 19.0281 20.068 19.0627 20.102C19.1319 20.2041 19.2702 20.2041 19.3394 20.2041C19.5124 20.1701 19.6854 20.068 19.7546 19.932C19.8584 19.7279 19.8584 19.4558 19.7892 19.1837V19.1497C19.7892 19.0816 19.7546 19.0136 19.7546 18.9456C19.7546 18.9116 19.7546 18.8435 19.7892 18.8095H19.8238L20.1006 18.8435C20.2389 18.7755 20.3773 18.6054 20.3773 18.4694C20.4119 18.3333 20.3773 18.1973 20.3773 18.0612C20.3773 17.8912 20.3427 17.6871 20.4119 17.483C20.4119 17.483 20.4119 17.483 20.4119 17.449C20.4465 17.2789 20.5503 17.1769 20.6195 17.0408C20.6887 16.9388 20.7233 16.8708 20.7579 16.7687C20.8271 16.5646 20.8271 16.3265 20.6541 16.2245C20.6195 16.1905 20.5849 16.1565 20.5849 16.1225C20.5849 16.0884 20.6195 16.0204 20.6541 16.0204C20.8963 15.9184 20.9655 15.8503 21.0001 15.7143C21.1038 15.7143 21.1038 15.6463 21.1038 15.5782C21.1038 15.4422 21.1384 15.3061 21.173 15.1701C21.2076 15.102 21.2422 15.068 21.2768 15C21.3114 14.932 21.346 14.864 21.3806 14.7959C21.4498 14.6599 21.346 14.4558 21.2768 14.2857ZM18.8205 16.9728C18.7859 17.1088 18.7513 17.2109 18.7167 17.3469C18.7167 17.381 18.6821 17.449 18.6821 17.483C18.6475 17.551 18.6129 17.6191 18.6129 17.6871C18.5783 17.7551 18.5783 17.7891 18.5437 17.8571C18.5091 17.9252 18.5091 17.9592 18.4745 18.0272C18.4399 18.0952 18.4053 18.1633 18.3707 18.2313C18.3707 18.2653 18.3361 18.2653 18.3361 18.2993C18.0594 18.7075 17.7826 19.0476 17.5058 19.3878C17.3674 19.5578 17.1945 19.7279 17.0215 19.8639C16.3987 20.4082 15.4992 20.9184 14.5651 20.9184C14.2192 20.9184 13.9078 20.8503 13.5964 20.7143C13.5272 20.6803 13.5272 20.6122 13.5272 20.5442C13.5618 20.4762 13.631 20.4762 13.7002 20.4762C14.8073 20.9864 16.0874 20.3742 16.8485 19.6939C16.9523 19.5918 17.0561 19.4898 17.1599 19.3878C17.2636 19.2857 17.3328 19.1837 17.4366 19.0816C17.4712 19.0476 17.5058 19.0136 17.5404 18.9456C17.6096 18.8776 17.6442 18.8095 17.7134 18.7415C17.748 18.7075 17.7826 18.6395 17.8172 18.6054C17.8518 18.5374 17.921 18.4694 17.9556 18.4014C17.9902 18.3674 18.0248 18.2993 18.0594 18.2653C18.094 18.1973 18.1286 18.1293 18.1632 18.0612C18.1978 17.9932 18.1978 17.9592 18.2323 17.8912C18.2669 17.8231 18.3015 17.7211 18.3361 17.6531C18.3707 17.6191 18.3707 17.551 18.4053 17.517C18.4399 17.415 18.4745 17.3469 18.5091 17.2449C18.5091 17.2109 18.5437 17.1429 18.5437 17.1088C18.5783 16.9728 18.6129 16.8367 18.6475 16.7007L18.7167 16.3946C18.7513 16.2245 18.7513 16.0884 18.7859 15.9184C18.7859 15.8844 18.7859 15.8503 18.7859 15.8163C18.7859 15.6803 18.8205 15.5102 18.8205 15.3742C18.8205 15.2041 18.8205 15.034 18.8205 14.864C18.7859 14.4218 18.7167 13.9796 18.5783 13.5714C18.5437 13.5034 18.5783 13.4354 18.6475 13.4354C18.7167 13.4014 18.7859 13.4354 18.7859 13.5034C18.8897 13.7755 18.9589 14.0816 18.9935 14.3878C19.0281 14.5578 19.0281 14.7279 19.0627 14.898C19.0627 14.932 19.0627 14.966 19.0627 15C19.0627 15.068 19.0627 15.1361 19.0627 15.2041C19.0627 15.2721 19.0627 15.3061 19.0627 15.3742C19.0627 15.4422 19.0627 15.5102 19.0627 15.5442C19.0627 15.6463 19.0627 15.7483 19.0281 15.8503C19.0281 15.8844 19.0281 15.9524 19.0281 15.9864C19.0281 16.0544 18.9935 16.1565 18.9935 16.2245C18.9935 16.2585 18.9935 16.2925 18.9589 16.3265C18.9243 16.4286 18.9243 16.5646 18.8897 16.6667L18.8205 16.9728Z" fill="#F4AF23"/>
<path d="M24.8058 17.585C24.6674 17.449 24.529 17.3469 24.356 17.2789C24.3214 17.2449 24.2868 17.2449 24.2522 17.2109C24.2176 17.2109 24.2176 17.1769 24.183 17.1769C24.0792 17.1088 23.9409 17.0408 23.8025 16.9728C23.3527 16.7347 22.9722 16.6326 22.6954 16.6667C22.6954 16.7007 22.6954 16.7687 22.73 16.8027C22.7646 17.0068 22.73 17.2449 22.6954 17.449L22.6608 17.8231C22.6954 17.8571 22.7646 17.8571 22.8338 17.8911C23.2143 18.0612 23.7679 18.2993 24.01 18.5034C24.2522 18.7415 24.4252 18.9796 24.5636 19.2857C24.875 19.1837 25.2555 18.8095 25.2555 18.5374C25.2901 18.1973 25.1171 17.8571 24.8058 17.585Z" fill="#F4AF23"/>
<path d="M24.0447 21.6326C24.0101 21.4625 23.9755 21.2925 23.8717 21.1564C23.8371 21.1224 23.8371 21.0884 23.8025 21.0544C23.8025 21.0544 23.7679 20.9863 23.6987 20.9183C23.5603 20.7483 23.3874 20.5782 23.1798 20.3741L22.4878 19.7619C22.3841 19.6598 22.2457 19.5578 22.1073 19.4557L22.0727 19.4217C22.1419 19.6598 22.1765 19.9319 22.0381 20.204C21.8997 20.5102 21.5883 20.7142 21.277 20.7823C21.8305 21.3265 22.4187 21.8707 23.0414 22.3809C23.249 22.517 23.5949 22.4829 23.7679 22.3129C23.9755 22.1768 24.0793 21.9047 24.0447 21.6326Z" fill="#F4AF23"/>
<path d="M22.5225 16.8367C22.5225 16.7687 22.4879 16.7007 22.4879 16.6327C22.4187 16.3946 22.2803 16.1565 22.0727 16.0204C22.0035 15.9864 22.0035 15.9524 21.9344 15.9184C21.796 15.8163 21.5884 15.7483 21.3462 15.7823C21.3462 15.8163 21.3462 15.8503 21.3116 15.8844C21.277 16.0884 21.1732 16.1905 21.0003 16.2585C21.1386 16.4286 21.1386 16.7347 21.0349 16.9388C21.0003 17.0408 20.9311 17.1429 20.8619 17.2449C20.7927 17.381 20.7235 17.483 20.6889 17.619C20.6543 17.7551 20.6543 17.9252 20.6889 18.0952C20.6889 18.2313 20.7235 18.4014 20.6889 18.5374C20.6543 18.7755 20.4813 19.0136 20.2737 19.1156C20.2045 19.1497 20.1353 19.1497 20.0662 19.1497C20.1353 19.4898 20.1353 19.7959 19.997 20.068C19.8932 20.2721 19.651 20.4422 19.4088 20.4762C19.305 20.4762 19.2358 20.4762 19.132 20.4422C19.0975 20.6803 18.9591 20.8844 18.7169 21.0544C18.4747 21.2245 18.1979 21.2925 17.9558 21.2245C17.9212 21.3946 17.8174 21.5646 17.6444 21.6667C17.4714 21.7687 17.2984 21.8027 17.1255 21.7687C17.1255 22.0068 16.9871 22.2449 16.7795 22.415C16.5373 22.6191 16.2606 22.6871 16.0184 22.6531C15.9492 22.8912 15.7416 23.0612 15.4994 23.1633C15.2227 23.2653 14.9459 23.2653 14.7383 23.1293C14.6691 23.1973 14.5307 23.2313 14.3923 23.2313C14.3578 23.2313 14.3232 23.2313 14.2886 23.2313C14.081 23.1973 13.8734 23.0612 13.7696 22.8912C13.7004 22.9592 13.5966 22.9592 13.4928 22.9932C13.3199 22.9932 13.1815 22.9252 13.0431 22.8231C13.0431 22.8571 13.0431 22.9252 13.0431 22.9592C13.0085 23.2313 12.9739 23.5034 13.0085 23.7075C13.0431 24.0136 13.1815 24.4558 13.5274 24.5578C13.7004 24.6259 13.908 24.5238 14.0118 24.4218C14.081 24.3537 14.1502 24.2517 14.1156 24.1156C14.081 24.0476 14.1156 23.9796 14.1848 23.9456C14.254 23.9116 14.3232 23.9456 14.3578 24.0136C14.4961 24.2857 14.8075 24.3878 15.0497 24.3878C15.2919 24.3878 15.6032 24.2857 15.7416 24.0136C15.7416 23.9796 15.7762 23.9456 15.8108 23.9456C15.8454 23.9456 15.88 23.9456 15.9146 23.9796C15.9492 24.0136 16.0184 24.0476 16.0876 24.0816C16.1222 24.1156 16.1568 24.1156 16.1914 24.1156C16.1914 24.1156 16.2606 24.1497 16.3297 24.1837H16.3643C16.4335 24.2177 16.5027 24.2177 16.5719 24.2177C16.7449 24.2177 16.9179 24.0136 16.9179 23.8435C16.9179 23.8095 16.9525 23.7415 16.9871 23.7415C17.0217 23.7075 17.0909 23.7415 17.1255 23.7755C17.1255 23.7755 17.1255 23.7755 17.1601 23.8095C17.1601 23.8095 17.2638 23.8776 17.2984 23.8776C17.333 23.8776 17.3676 23.9116 17.4022 23.9116C17.506 23.9116 17.6098 23.9116 17.7136 23.8435C17.9212 23.7415 18.025 23.5034 17.9904 23.2653C17.9904 23.2313 17.9904 23.1633 18.025 23.1293C18.0596 23.0952 18.1288 23.0952 18.1634 23.1293C18.4055 23.2653 18.6477 23.1973 18.8207 23.0612C18.9937 22.9592 19.1666 22.7211 19.132 22.483C19.132 22.449 19.132 22.449 19.132 22.415L19.1666 22.381C19.2012 22.381 19.2012 22.381 19.2358 22.381C19.2704 22.381 19.2704 22.381 19.305 22.415C19.3742 22.483 19.478 22.483 19.5472 22.483C19.6856 22.449 19.8586 22.381 19.9278 22.2449C20.0662 22.0068 20.0662 21.7347 20.0316 21.3946C20.0316 21.3605 20.0316 21.3605 20.0316 21.3265C20.0316 21.2925 20.0662 21.2925 20.0662 21.2925C20.1007 21.2925 20.1007 21.2925 20.1353 21.2925C20.1699 21.2925 20.1699 21.2925 20.2045 21.3265C20.3429 21.4626 20.5851 21.4966 20.7581 21.3946C20.9311 21.2925 20.9657 21.0204 20.8619 20.8503C20.8273 20.8163 20.8273 20.7483 20.8619 20.7143C20.8965 20.6803 20.9311 20.6463 20.9657 20.6463C21.3116 20.6803 21.6576 20.4762 21.796 20.1701C21.969 19.7959 21.7268 19.3537 21.6576 19.2177C21.623 19.1837 21.623 19.1156 21.6576 19.0816C21.6922 19.0476 21.7614 19.0136 21.796 19.0476C21.9344 19.1156 22.1073 19.0136 22.2111 18.8776C22.3149 18.7075 22.3495 18.5034 22.3495 18.3333L22.4533 17.483C22.5225 17.2449 22.5571 17.0408 22.5225 16.8367Z" fill="#F4AF23"/>
<path d="M24.4943 19.8979C24.4943 19.7959 24.4597 19.7279 24.4252 19.6258C24.4252 19.5918 24.3906 19.5578 24.3906 19.5238C24.3906 19.4898 24.356 19.4217 24.356 19.4217C24.356 19.3877 24.3214 19.3537 24.3214 19.3197C24.2176 19.0816 24.0446 18.8435 23.8716 18.6734C23.6986 18.5034 23.1105 18.2653 22.7991 18.0952C22.7645 18.0952 22.7299 18.0612 22.6953 18.0612L22.6607 18.2993C22.6261 18.5034 22.5915 18.7415 22.4878 18.9455C22.4186 19.0476 22.3148 19.1496 22.211 19.1836C22.2456 19.2177 22.2802 19.2517 22.3148 19.2517C22.4532 19.3537 22.5915 19.4557 22.7299 19.5578L23.4219 20.17C23.6294 20.3741 23.837 20.5782 24.01 20.7823C24.183 20.7823 24.3906 20.6802 24.4597 20.5102C24.4943 20.4081 24.5289 20.17 24.4943 19.8979Z" fill="#F4AF23"/>
<path d="M6.91938 2.61905C7.05777 3.84354 7.85348 4.89796 8.92597 5.27211C10.0676 5.68027 11.4515 5.17007 11.9359 4.18368C12.1088 3.84354 12.178 3.43538 12.2472 3.06123C12.3164 2.65306 12.351 2.2449 12.2818 1.87075C10.552 1.76871 8.71839 1.76871 6.98857 1.87075C6.91938 2.10885 6.88478 2.34694 6.91938 2.61905Z" fill="#F4AF23"/>
<path d="M31.3437 32.2782C30.9978 31.5979 30.548 30.7816 29.9253 30.1694C29.4409 29.6932 28.8874 29.285 28.3339 28.9108C28.0225 28.6728 27.6765 28.4687 27.3652 28.1966C27.3306 28.1625 23.9401 25.5435 23.3866 25.2374C23.0752 25.0333 22.66 24.7272 22.3487 24.4891C22.3141 24.353 22.2795 24.251 22.2449 24.183C22.2795 24.0469 22.2795 23.9449 22.2449 23.8088C22.2795 23.8088 22.3141 23.8088 22.3487 23.8088C22.5909 23.8088 22.7984 23.7408 22.9714 23.6047C23.2136 23.4347 23.2828 23.0945 23.2828 22.8224C23.5596 22.8564 23.8363 22.7544 24.0439 22.5843C24.3207 22.3462 24.4245 21.9721 24.3899 21.5979C24.3553 21.4279 24.3207 21.2578 24.2515 21.1217C24.4245 21.0537 24.5974 20.9177 24.7012 20.7476C24.8396 20.5095 24.9088 20.2034 24.8396 19.8292C24.8396 19.7272 24.805 19.6591 24.7704 19.5571C25.1856 19.387 25.6007 18.9449 25.6007 18.5027C25.6007 18.2986 25.5661 18.1285 25.497 17.9245C26.3273 17.1421 27.3652 16.1557 27.8841 14.8972C28.2301 14.0809 28.1955 12.5843 28.0225 11.6319C28.1955 11.3258 28.3339 11.0537 28.4722 10.7816C28.8528 10.0333 29.268 8.94486 28.7144 8.09452C28.6452 7.99248 28.5414 7.89044 28.4722 7.82241C28.6106 7.5503 28.7144 7.34622 28.7836 7.10813C28.9912 6.46187 28.749 5.5435 28.2993 5.0333C28.4376 4.72718 28.5414 4.45507 28.6106 4.21697C28.7836 3.74078 28.9566 3.16255 28.8182 2.58432C28.6798 2.07411 28.2993 1.73398 27.8495 1.66595C27.8841 1.42786 27.9187 1.12173 27.8149 0.849625C27.6765 0.441461 27.2268 0.101325 26.777 0.203366C26.4657 0.305407 26.2581 0.543502 26.1197 0.815611C25.8429 1.22377 25.6007 1.69996 25.324 2.21017V2.17616C25.2548 1.93806 25.0818 1.69996 24.8742 1.59792C24.8396 1.59792 24.805 1.56391 24.7704 1.56391C24.7704 1.5299 24.7704 1.49588 24.7704 1.46187C24.805 0.951666 24.4937 0.373434 23.9401 0.203366C23.4558 0.0673118 23.006 0.339421 22.7638 0.611529C22.4871 0.883638 22.3487 1.22377 22.2103 1.5299L22.1757 1.56391C21.2762 3.46867 20.1691 5.23738 18.7853 6.83602C18.6815 6.87003 18.5431 6.93806 18.4739 7.00609C18.1625 7.21017 17.9203 7.51629 17.7128 7.7884C17.436 8.16255 16.9171 8.94486 16.3981 9.65915C16.0521 10.2034 15.6716 10.7476 15.3948 11.1217C15.3948 11.0877 15.3602 11.0197 15.3602 10.9857V10.8836C15.3256 10.7816 15.3256 10.6796 15.3256 10.5775V10.5095C15.3256 10.3734 15.3256 10.2714 15.3256 10.1694C16.0175 9.55711 16.5019 8.80881 16.9516 7.89044C17.4706 6.90405 17.6436 6.08772 17.5398 5.33942C17.436 4.55711 16.9516 3.77479 16.2597 3.2986C15.637 2.85643 13.5612 1.87003 12.5925 1.76799C12.5925 1.73398 12.5925 1.69996 12.5579 1.66595V1.63194C12.5233 1.5299 12.4887 1.42786 12.4541 1.32582C11.9698 0.169353 10.5167 -0.000715397 9.68641 -0.034729C8.51013 -0.034729 7.61063 0.271393 7.09168 0.849625C6.8841 1.05371 6.74572 1.2918 6.64193 1.56391C6.64193 1.59792 6.60733 1.63194 6.60733 1.69996V1.73398C6.57274 2.07411 6.53814 2.38024 6.57274 2.68636C6.71112 4.0469 7.61063 5.20337 8.8215 5.64554C9.13287 5.74758 9.44424 5.81561 9.7556 5.81561C10.8281 5.81561 11.8314 5.23738 12.2465 4.38704C12.3157 4.285 12.3503 4.14894 12.3849 4.01289C12.5579 3.97888 12.9039 3.87684 13.2152 3.70677C14.1493 3.5367 14.8413 3.87684 15.1872 4.08092C15.983 4.55711 16.3981 5.33942 16.3981 5.84963C16.3981 7.89044 14.011 8.2986 10.6551 8.84282C10.3091 8.91085 9.96318 8.94486 9.61722 9.01289C9.13287 9.08092 8.30256 9.31901 8.02578 10.0333C8.02578 10.0673 7.99119 10.1013 7.99119 10.1353C7.95659 10.2034 7.95659 10.2374 7.922 10.3054C7.8874 10.3734 7.81821 10.4074 7.74901 10.4415C7.54144 10.5775 7.33386 10.6455 7.09168 10.7476C6.57274 10.9857 6.05379 11.1898 5.77702 11.734C5.39646 12.5163 5.91541 13.4006 6.43435 13.9789C6.50354 14.0469 6.57274 14.1489 6.71112 14.217C6.9533 14.319 7.23007 14.217 7.50684 13.9108C7.74901 13.6387 8.09498 13.4006 8.54473 13.2306C8.78691 13.1285 8.99448 13.0945 9.13287 13.1625C9.20206 13.1966 9.27125 13.2646 9.30585 13.3326C9.40964 13.5367 9.20206 13.8088 8.99448 13.9449C8.75231 14.1149 8.47554 14.183 8.12957 14.1489H8.02578C7.8528 14.1149 7.67982 14.1149 7.50684 14.1489C7.26466 14.217 6.98789 14.4211 6.98789 14.6932C6.98789 15.2714 7.19547 15.6115 7.61063 15.7136C7.81821 15.7476 7.99119 15.7476 8.16417 15.7136C8.30256 15.7136 8.44094 15.6796 8.57933 15.7136C9.09827 15.7816 9.40964 16.4279 9.40964 16.9721C9.44424 17.9585 8.89069 18.8768 8.33715 19.7612V19.7272C8.26796 19.8632 8.16417 19.9993 8.09498 20.1353C7.54144 21.0537 7.09168 22.0741 6.74572 23.0945C6.46895 23.9789 6.15758 25.1013 6.50354 26.2238C6.53814 26.2918 6.57274 26.3938 6.57274 26.4619C6.64193 26.7 6.74572 26.904 6.71112 27.1421C6.71112 27.3122 6.64193 27.4483 6.57274 27.6183C6.22677 28.5367 5.77702 29.5911 5.29267 30.6455C4.84292 31.666 4.35857 32.7204 4.01261 33.6728C3.97801 33.8088 3.90882 33.9789 3.83962 34.1489V34.183C3.63205 34.7952 3.35527 35.6115 3.0785 35.9517C2.80173 36.2918 2.38658 36.5979 2.00602 36.87C1.90223 36.9381 1.79844 37.0401 1.69465 37.1081C1.66005 37.1421 1.52167 37.1762 1.45247 37.2102C0.968124 37.3802 0.172408 37.6183 -0.000574315 38.3326C-0.104363 38.7408 0.103215 39.0809 0.518371 39.251C0.656757 39.387 0.898931 39.4551 1.2103 39.4551C1.45247 39.7612 2.00602 39.8292 2.35198 39.7952C3.35527 39.9653 4.46236 39.9313 5.46565 39.7272C5.53485 39.7272 5.60404 39.6591 5.63863 39.5911C6.50354 37.3462 7.29926 35.6455 7.95659 34.5571C8.09498 34.319 8.26796 34.0469 8.44094 33.7408C8.8215 33.0945 9.23666 32.3802 9.58262 31.904C9.8248 31.5639 10.067 31.1898 10.3091 30.7136C12.7309 33.2986 18.0241 34.217 20.1691 34.251C20.5843 35.2374 21.207 36.1898 22.0719 37.0061C20.7918 36.87 19.5118 36.87 18.3701 36.9381C17.9895 36.9381 17.5744 37.0061 17.1938 37.0741L16.9171 37.1081C16.2943 37.2102 15.9484 37.6864 15.7754 37.9585C15.6024 38.2646 15.464 38.7068 15.5332 38.9449C15.6716 39.285 16.0175 39.5231 16.3981 39.5231C16.8825 39.8972 17.8512 39.9653 18.3701 39.9653H18.4739C18.8199 39.9993 19.2004 39.9993 19.6156 39.9993C20.2037 39.9993 20.7572 39.9653 21.3108 39.9653L26.5348 39.7612C26.777 39.7612 27.0192 39.7272 27.296 39.7272C27.3652 39.7272 27.3998 39.7272 27.4689 39.6932L30.9978 39.6251C31.2054 39.6251 31.4129 39.6251 31.6551 39.5571C32.0703 39.4211 32.4508 39.1149 32.6584 38.6387C32.8314 38.2986 32.9006 37.8904 32.9006 37.3802C32.9006 35.5775 32.1395 33.8428 31.3437 32.2782ZM0.829739 37.9585C0.656757 38.1625 0.552968 38.3666 0.449179 38.6047C0.449179 38.5367 0.449179 38.5027 0.449179 38.4347C0.518371 38.2306 0.62216 38.0945 0.829739 37.9585ZM28.1955 38.5027C28.0917 38.1966 27.8841 37.9585 27.6419 37.7544C26.5002 36.6319 25.2548 35.5775 23.9401 34.6591C23.8363 34.5911 23.6979 34.6251 23.6287 34.6932C23.5596 34.7952 23.5942 34.9313 23.6633 34.9993C24.9434 35.9177 26.1889 36.9721 27.3306 38.0605C27.5381 38.2646 27.7111 38.4347 27.7803 38.6387C27.8495 38.8088 27.8149 39.0469 27.6765 39.1489C27.6073 39.183 27.5381 39.217 27.4344 39.217H27.0884C27.0538 39.217 27.0192 39.217 26.9846 39.251C26.8116 39.251 26.6732 39.251 26.5002 39.285L21.3454 39.4891C20.4113 39.5231 19.4426 39.5571 18.5085 39.4891H18.4047C18.2317 39.4891 17.9549 39.4551 17.6782 39.4211C17.609 39.387 17.5744 39.353 17.5744 39.285C17.5398 39.183 17.5398 39.0469 17.5744 38.9109C17.5744 38.8088 17.5744 38.7068 17.609 38.6387C17.6782 38.4687 17.8166 38.3326 18.0241 38.2646C18.1279 38.2306 18.2663 38.1966 18.4047 38.1966C18.4739 38.1966 18.5777 38.1966 18.6815 38.1966C18.7507 38.1966 18.7853 38.1966 18.8545 38.1625C18.889 38.1285 18.9236 38.0605 18.9582 38.0265C18.9582 37.9585 18.9582 37.9245 18.9236 37.8564C18.889 37.8224 18.8199 37.7884 18.7853 37.7884C18.4393 37.7544 18.1625 37.7544 17.9203 37.8564C17.609 37.9585 17.3322 38.1966 17.2284 38.5027C17.1938 38.6387 17.1592 38.7748 17.1592 38.9109C17.1592 39.0469 17.1592 39.183 17.1592 39.319C16.8825 39.251 16.6749 39.1149 16.6057 38.9789C16.6057 38.9789 16.6057 38.9449 16.6057 38.8768C16.7095 38.4006 17.1246 37.9925 17.5744 37.8224C17.6782 37.7884 17.7474 37.6523 17.7128 37.5503C17.6782 37.4823 17.6436 37.4483 17.5744 37.4142C17.8512 37.3802 18.1279 37.3462 18.4047 37.3122C19.754 37.2782 21.207 37.2442 22.66 37.4823C22.7292 37.5503 22.7984 37.5503 22.9022 37.5163C23.0752 37.5503 23.2136 37.5843 23.3866 37.6183H23.4212C24.0785 38.1966 24.7012 38.5367 25.3586 38.6387C25.497 38.6728 25.7045 38.6047 25.8083 38.4687C25.8775 38.3666 25.8429 38.2306 25.7737 38.1625C25.7391 38.1285 25.6699 38.0945 25.6353 38.0945C25.5661 38.0945 25.5315 38.0945 25.4624 38.1285C25.4278 38.1625 25.3932 38.1966 25.3932 38.2306C24.2861 38.0605 23.4212 37.1081 22.6946 36.2238C21.9681 35.3394 21.3108 34.4551 21.1032 33.4347C20.9648 32.6183 21.1378 31.734 21.6222 31.0537C22.1065 30.3734 22.833 29.8632 23.6633 29.6932C24.0785 29.5911 24.5283 29.5911 25.0472 29.6591C26.0851 29.7612 27.0884 30.1353 27.9533 30.6796C28.0571 30.7476 28.1955 30.7136 28.2647 30.6115C28.2993 30.5775 28.2993 30.5095 28.2993 30.4415C28.2993 30.3734 28.2647 30.3394 28.1955 30.3054C27.2614 29.6932 26.1889 29.319 25.0818 29.183C24.5283 29.1149 24.0093 29.1489 23.5596 29.251C22.6255 29.4551 21.7605 29.9993 21.207 30.8156C21.1032 30.9857 20.9994 31.1557 20.8956 31.3938C20.7573 31.7 20.7227 31.836 20.7227 31.904C20.5843 32.4483 20.5497 33.0265 20.6189 33.5367C20.8264 34.6591 21.5184 35.6115 22.2795 36.5299C22.4179 36.7 22.5909 36.904 22.7638 37.1081C21.6568 36.1557 20.861 35.0333 20.4113 33.8428L20.3767 33.7748L20.0653 33.8088C17.3668 33.7408 12.4887 32.5843 10.4475 30.3054C10.9319 29.4551 11.3816 28.6047 11.7622 27.7884C11.7968 27.6864 11.7622 27.5503 11.6584 27.4823C11.5546 27.4483 11.4162 27.4823 11.347 27.5843C10.6897 28.9789 9.92859 30.3394 9.06368 31.6319C8.71771 32.1421 8.26796 32.8904 7.922 33.5027L7.8874 33.5367C7.71442 33.8088 7.57603 34.0809 7.43765 34.319C6.78032 35.4074 6.01919 37.1081 5.15429 39.319C4.28938 39.4891 3.35527 39.5231 2.49036 39.387C2.49036 39.0809 2.62875 38.7408 2.87092 38.4687C3.1477 38.1625 3.49366 37.9585 3.87422 37.9245C3.94341 37.9245 3.97801 37.8904 4.01261 37.8564C4.0472 37.8224 4.0818 37.7544 4.0818 37.6864C4.0818 37.5503 3.97801 37.4823 3.83962 37.4823C3.35527 37.5163 2.87092 37.7884 2.52496 38.1966C2.24819 38.5367 2.07521 38.9449 2.04061 39.353C1.79844 39.353 1.52167 39.251 1.45247 39.183C1.45247 39.183 1.41788 39.1149 1.52167 38.9449C1.79844 38.3666 2.38658 37.9925 2.97471 37.6183L3.21689 37.4483C3.59745 37.2102 3.94341 36.6319 4.15099 36.3258C4.32397 36.0537 7.40305 29.183 8.30256 26.5979C8.33715 26.5299 8.30256 26.4619 8.26796 26.4279C7.74901 25.5435 7.54144 24.7952 7.61063 24.1149C7.67982 23.4006 8.23336 22.6183 8.99448 22.5163C9.06368 22.5163 9.09827 22.4823 9.13287 22.4483C9.16747 22.4142 9.20206 22.3462 9.16747 22.2782C9.16747 22.2102 9.13287 22.1762 9.09827 22.1421C9.16747 22.1081 9.13287 22.1081 9.06368 22.1081C8.02578 22.2102 7.36845 23.2306 7.26466 24.1149C7.19547 24.8632 7.40305 25.6796 7.95659 26.5979C6.98789 29.353 3.97801 35.9517 3.87422 36.1557C3.59745 36.6319 3.28608 37.0061 3.0785 37.1421C3.00931 37.1762 2.94012 37.2442 2.87092 37.2782L2.83633 37.3122C2.21359 37.7204 1.59086 38.1285 1.2449 38.8088C1.2103 38.9108 1.1757 38.9789 1.14111 39.0809C0.898931 39.0809 0.864335 39.0129 0.864335 39.0129C0.864335 39.0129 0.829739 38.9789 0.898931 38.8428C1.14111 38.1966 1.72924 37.7544 2.35198 37.2782C2.76714 36.9721 3.18229 36.666 3.49366 36.2918C3.83962 35.8836 4.11639 35.0673 4.32397 34.387C4.39317 34.183 4.42776 34.0129 4.49695 33.8768C4.84292 32.9585 5.29267 31.904 5.74242 30.9177V30.8836C6.19218 29.8632 6.67653 28.8088 7.02249 27.8564C7.09168 27.6523 7.16087 27.4823 7.19547 27.2442C7.23007 26.9381 7.12628 26.666 7.02249 26.3598C6.98789 26.2918 6.98789 26.2238 6.9533 26.1557C6.64193 25.1694 6.9187 24.1149 7.19547 23.2986C7.54144 22.3122 7.95659 21.3258 8.51013 20.4415C8.57933 20.3054 8.68312 20.1694 8.7869 19.9993C9.37504 19.0469 9.96318 18.0945 9.92859 16.9721C9.89399 16.2238 9.47883 15.4074 8.71771 15.3054C8.54473 15.2714 8.37175 15.3054 8.19877 15.3054C8.02578 15.3054 7.8874 15.3394 7.74901 15.3054C7.67982 15.3054 7.50684 15.2374 7.47224 14.7272C7.47224 14.6932 7.57603 14.6251 7.64522 14.5911C7.74901 14.5571 7.8874 14.5911 8.02578 14.5911H8.12957C8.54473 14.6251 8.95989 14.5571 9.27125 14.319C9.65181 14.0809 9.96318 13.6047 9.7556 13.1625C9.68641 12.9585 9.54803 12.8224 9.34045 12.7544C9.09827 12.6523 8.75231 12.6864 8.40634 12.8224C7.8874 13.0265 7.47224 13.2986 7.19547 13.6387C7.05709 13.8088 6.9533 13.8428 6.9187 13.8428C6.8841 13.8428 6.84951 13.7748 6.81491 13.7408C6.53814 13.4347 6.33056 13.1285 6.22677 12.8564C6.26137 12.8224 6.33056 12.8224 6.36516 12.7884C6.39976 12.7884 6.39976 12.7884 6.43435 12.7884C6.60733 12.7884 6.81491 12.8224 6.98789 12.7204C7.26466 12.5843 7.47224 12.2442 7.36845 11.9381C7.33386 11.87 7.26466 11.802 7.19547 11.802C6.98789 11.768 6.74572 11.836 6.57274 11.9721C6.43435 12.0741 6.33056 12.2102 6.22677 12.3122L6.19218 12.3802L6.15758 12.4143C6.15758 12.2782 6.19218 12.1421 6.26137 12.0061C6.43435 11.6319 6.8841 11.4279 7.33386 11.2578C7.57603 11.1557 7.81821 11.0537 8.02578 10.9177C8.12957 10.8496 8.23336 10.7816 8.33715 10.6455C8.40635 10.5435 8.44094 10.4755 8.47554 10.3734C8.47554 10.3394 8.51013 10.3054 8.51013 10.2714C8.71771 9.76119 9.40964 9.59112 9.7902 9.52309C10.1362 9.45507 10.4475 9.42105 10.7589 9.35303H10.8281C14.3915 8.74078 16.9516 8.33262 16.9516 5.91765C16.9516 5.16935 16.3635 4.285 15.5332 3.7748C15.1872 3.57071 14.6337 3.2986 13.9072 3.2986C13.838 3.12854 13.8726 3.06051 13.8726 3.0265C13.9072 2.85643 13.838 2.72037 13.7342 2.5503C14.6337 2.89044 15.637 3.40065 16.0175 3.67275C16.6057 4.08092 17.0208 4.72718 17.1246 5.40745C17.2284 6.05371 17.0554 6.80201 16.5711 7.72037C16.2943 8.2986 15.9484 8.87684 15.4986 9.38704C15.4986 9.18296 15.464 8.97888 15.3948 8.77479C15.3602 8.70677 15.3256 8.67275 15.2564 8.63874C15.1872 8.60473 15.118 8.60473 15.0834 8.63874C14.5645 8.91085 13.9418 9.0469 13.3536 9.08092C13.2498 9.08092 13.146 9.08092 13.0423 9.08092H13.0077C12.8347 9.08092 12.6617 9.08092 12.4887 9.08092C12.0736 9.11493 11.693 9.21697 11.3124 9.38704C11.2432 9.42105 11.2087 9.45507 11.2087 9.52309C11.1741 9.59112 11.1741 9.62514 11.2087 9.69316C11.2432 9.7952 11.3816 9.86323 11.52 9.7952C11.8314 9.65915 12.1774 9.55711 12.5233 9.55711C12.6963 9.55711 12.8693 9.55711 13.0423 9.55711C13.146 9.55711 13.2844 9.55711 13.3882 9.55711C13.9418 9.52309 14.5299 9.42105 15.0488 9.18296C15.0834 9.55711 14.9797 9.96527 14.7029 10.3054C14.3915 10.6796 13.9072 10.8836 13.3536 10.9177C13.1806 10.9177 12.9731 10.9177 12.7655 10.9177L11.9006 10.8836C11.8314 10.8836 11.7968 10.8836 11.7276 10.9517C11.693 10.9857 11.6584 11.0537 11.6584 11.1217C11.6584 11.2578 11.7622 11.3598 11.866 11.3598L12.7309 11.3938C12.9385 11.3938 13.146 11.4279 13.3536 11.3938C13.9418 11.3598 14.4953 11.1217 14.8759 10.7476V10.7816L14.9105 11.0197C14.9105 11.0877 14.9451 11.1898 14.9451 11.2578C14.9451 11.3258 14.9797 11.3598 14.9797 11.4279L15.0143 11.4959C15.0143 11.5639 15.0488 11.5979 15.0488 11.666C15.0834 11.802 15.1526 11.9381 15.1872 12.0741C15.3256 12.3802 15.464 12.6864 15.6024 12.9245C15.6716 13.0605 15.7408 13.1625 15.81 13.2986C15.8792 13.4006 15.9484 13.5367 16.0175 13.6728C16.0867 13.7748 16.1559 13.9108 16.1905 14.0129L16.2943 13.9789H16.2597C16.3981 14.251 16.5019 14.4551 16.5711 14.6591C16.5711 14.6932 16.5711 14.7272 16.6057 14.7612C16.6057 14.7952 16.6403 14.8632 16.6403 14.8972C16.6057 15.1353 16.5711 15.3734 16.5711 15.5775C16.5019 16.1898 16.4327 16.802 16.1559 17.3122C15.637 18.2986 14.4607 18.8088 13.4228 19.251C13.2844 19.319 13.0423 19.4211 12.9385 19.5911C12.8347 19.7272 12.8001 19.8632 12.8001 19.9653C12.6963 20.6115 12.6963 21.2578 12.6963 21.904C12.6963 22.0741 12.6963 22.2782 12.7309 22.4483C12.7309 22.5843 12.6963 22.7544 12.6963 22.9245C12.6617 23.1966 12.6271 23.5027 12.6617 23.7408C12.6617 23.8768 12.6963 24.0129 12.7655 24.1489C12.6271 24.6932 12.5233 25.3734 12.5233 25.8496C12.5233 26.0877 12.5579 26.3258 12.6617 26.5639C12.7655 26.768 13.0077 26.9721 13.319 26.9721C13.3536 26.9721 13.3536 26.9721 13.3882 26.9721C13.5958 26.9381 13.8034 26.768 14.011 26.4619C14.1147 26.5979 14.2185 26.7 14.3223 26.768C14.4607 26.904 14.6683 27.0741 14.9105 27.1081C15.0834 27.1421 15.2564 27.0061 15.3602 26.904C15.3948 26.87 15.4294 26.836 15.464 26.802C15.5332 26.904 15.637 27.0061 15.7408 27.0741C15.8792 27.2102 16.0867 27.3462 16.2943 27.3462H16.3289C16.6749 27.3122 16.9171 27.1081 17.0554 26.7C17.2284 26.836 17.4014 26.904 17.609 26.904C17.8512 26.904 18.1625 26.768 18.3355 26.4619C18.3701 26.4959 18.4047 26.5299 18.4393 26.5299C18.7853 26.734 19.1658 26.802 19.5118 26.666C19.7886 26.5639 19.9615 26.3598 20.0307 26.1217C20.1345 26.1217 20.2037 26.1217 20.2729 26.1217C20.5151 26.0877 20.7572 25.9177 20.9302 25.6455C21.034 25.4755 21.0686 25.3054 21.0686 25.1353C21.1378 25.1353 21.1724 25.1353 21.2416 25.1353C21.5184 25.1013 21.7951 24.9653 22.0027 24.7612C22.0373 24.7612 22.0373 24.7952 22.0719 24.7952C22.3833 25.0333 23.006 25.4755 23.0406 25.4755C23.0752 25.5095 26.4311 27.9925 27.1576 28.5367C27.4689 28.7748 27.8149 29.0129 28.1609 29.251C28.6798 29.6251 29.2334 29.9993 29.6831 30.4415C30.2713 31.0197 30.6864 31.802 31.0324 32.4483C31.8281 33.9789 32.5546 35.6115 32.5546 37.3802C32.5546 37.8224 32.4854 38.1966 32.347 38.4687C32.1741 38.8088 31.9319 39.0469 31.6205 39.1489C31.4475 39.183 31.2745 39.183 31.1016 39.217L28.2993 39.251C28.2993 39.0129 28.2647 38.7068 28.1955 38.5027ZM16.1559 38.8088C16.1559 38.8428 16.1213 38.9108 16.1213 38.9449C16.0521 38.9108 16.0175 38.8428 15.983 38.7748C15.983 38.7408 16.0175 38.4687 16.1905 38.1966C16.3289 37.9925 16.6057 37.6183 17.0208 37.5503L17.2976 37.5163C17.2976 37.5163 17.2976 37.5163 17.3322 37.5163C16.7441 37.7204 16.2943 38.2306 16.1559 38.8088ZM25.1856 3.63874C25.6007 2.65235 26.0159 1.76799 26.4657 1.01969C26.5694 0.849625 26.7078 0.645543 26.8462 0.611529C27.0538 0.543502 27.2614 0.747584 27.3306 0.951666C27.4343 1.22377 27.3652 1.5299 27.296 1.80201C26.5694 4.62513 24.7704 7.00609 23.179 9.08092C23.1444 9.0469 23.0752 9.0469 23.0406 9.0469C23.1444 8.80881 23.2482 8.57071 23.2136 8.2986C23.179 7.95847 22.9714 7.58432 22.5563 7.55031L24.4245 4.93126C24.7012 4.52309 25.0126 4.08092 25.1856 3.63874ZM18.0933 25.6115C17.7474 25.1353 17.5052 24.6591 17.4014 24.217C17.5398 24.217 17.6782 24.183 17.8166 24.1149C18.0241 24.0129 18.1971 23.8088 18.2317 23.5707C18.2663 23.9789 18.3701 24.353 18.4739 24.6591C18.5431 24.9313 18.6469 25.2374 18.8545 25.4755C18.9582 25.5775 19.062 25.6796 19.1312 25.7476C19.2696 25.8496 19.408 25.9517 19.5118 26.0197C19.4772 26.1557 19.408 26.2238 19.2696 26.2918C19.0966 26.3598 18.8199 26.3258 18.6123 26.1898C18.4393 26.0197 18.2663 25.8156 18.0933 25.6115ZM14.2877 24.6932C14.3223 24.6591 14.3569 24.6251 14.3915 24.5571C14.5299 24.6591 14.7029 24.6932 14.8759 24.7272C14.9105 25.3054 14.9797 25.8836 15.1872 26.3598C15.1872 26.3938 15.1526 26.4959 15.0488 26.5639C14.9797 26.6319 14.9451 26.6319 14.9451 26.666C14.8413 26.6319 14.7375 26.5639 14.6337 26.4279C14.4953 26.2918 14.3569 26.1898 14.2877 26.0197C14.1147 25.7476 14.0456 25.3734 14.0456 24.8292C14.1147 24.8292 14.1839 24.7612 14.2877 24.6932ZM15.8792 24.387C15.9138 24.387 15.9138 24.4211 15.9484 24.4211C15.9484 24.9993 16.2597 25.5435 16.4673 25.9517C16.5365 26.0877 16.6057 26.1898 16.6749 26.2918C16.5711 26.7 16.4673 26.87 16.2597 26.87C16.1905 26.87 16.0867 26.802 15.983 26.7C15.4294 26.2238 15.3256 25.4074 15.291 24.6591C15.5332 24.6591 15.7408 24.5231 15.8792 24.387ZM16.5365 24.5571C16.7095 24.5571 16.8479 24.4551 16.9862 24.353C17.1246 24.8292 17.3668 25.3394 17.7474 25.8496C17.8166 25.9517 17.8858 26.0197 17.9549 26.1217C17.9203 26.3938 17.6782 26.4619 17.609 26.4619C17.2976 26.4619 17.0554 26.0877 16.8825 25.7816C16.7095 25.4415 16.4673 24.9993 16.4327 24.5911C16.4673 24.5571 16.5019 24.5571 16.5365 24.5571ZM18.9236 24.5231C18.8199 24.183 18.7161 23.8428 18.7161 23.4687C18.8199 23.4347 18.889 23.4006 18.9928 23.3326C19.0966 23.2646 19.2004 23.1625 19.2696 23.0945C19.3388 23.2986 19.4426 23.5027 19.5118 23.6387C19.6848 23.9789 19.8231 24.319 20.0999 24.6251C20.2383 24.7952 20.4459 24.9313 20.6189 24.9993C20.6535 25.1353 20.6189 25.3054 20.5497 25.4415C20.4805 25.5775 20.3421 25.6796 20.2383 25.7136C20.0307 25.7476 19.7886 25.6455 19.5118 25.4074C19.4426 25.3394 19.3388 25.2714 19.2696 25.2034C19.062 24.9993 18.9928 24.7612 18.9236 24.5231ZM13.4228 24.8972C13.4574 24.8972 13.5266 24.9313 13.5612 24.9313C13.5612 25.3394 13.6304 25.7136 13.7342 25.9857C13.5612 26.3598 13.3882 26.5299 13.319 26.5299C13.2152 26.5299 13.1115 26.4619 13.0423 26.3598C12.9731 26.2238 12.9385 26.0537 12.9385 25.8496C12.9385 25.5435 12.9731 25.1013 13.0769 24.6932C13.1806 24.7952 13.2844 24.8632 13.4228 24.8972ZM24.2169 13.4687C24.2169 13.7068 24.2169 13.9449 24.1477 14.183C24.0785 14.387 23.9747 14.6251 23.8709 14.8292C23.7325 15.0673 23.5942 15.3394 23.4904 15.6115L23.4558 15.6455C23.3174 15.8836 23.2136 16.1217 23.0752 16.3598C23.006 16.3598 22.9022 16.3258 22.833 16.3258C22.7984 16.3258 22.7638 16.3258 22.7292 16.3258C22.6255 16.1217 22.5217 15.9177 22.3487 15.7816C22.8676 15.0673 23.352 14.353 23.8017 13.6387C23.9055 13.4687 24.0093 13.2986 24.0785 13.0945C24.0785 13.0605 24.1131 13.0265 24.1131 12.9925C24.1131 13.0265 24.1477 13.0265 24.1477 13.0605C24.2169 13.1966 24.2169 13.3326 24.2169 13.4687ZM24.0093 16.666C23.8363 16.5979 23.6979 16.5299 23.525 16.4619C23.6287 16.2578 23.7325 16.0537 23.8363 15.8496C23.9747 15.5775 24.1477 15.2714 24.2861 14.9993C24.3553 14.8972 24.3899 14.7612 24.4591 14.6591C24.5628 14.6251 24.6666 14.6591 24.7358 14.6932C24.8396 14.7612 24.9088 14.8972 24.9434 15.0333C25.0126 15.4074 24.8396 15.7816 24.632 16.1898L24.3207 16.802C24.2169 16.768 24.1131 16.734 24.0093 16.666ZM20.7918 20.6115C20.7572 20.6796 20.7572 20.7816 20.7918 20.8496C20.861 20.9857 20.8264 21.1557 20.7227 21.2578C20.6189 21.3598 20.4113 21.3258 20.3075 21.2238H20.2729C20.2383 21.1898 20.2037 21.1898 20.2037 21.1898H20.1691C20.1345 21.1898 20.0653 21.1898 20.0307 21.1898C19.9961 21.1898 19.9615 21.2238 19.9269 21.2578V21.2918C19.8923 21.3258 19.8923 21.3598 19.8923 21.3938V21.4279C19.9269 21.734 19.9269 22.0061 19.7886 22.2102C19.7194 22.3122 19.6156 22.3802 19.4772 22.4142C19.4426 22.4142 19.3734 22.4143 19.3042 22.3802C19.2696 22.3462 19.235 22.3462 19.2004 22.3122H19.1658C19.1312 22.3122 19.0966 22.3122 19.062 22.3122L19.0274 22.3462C18.9928 22.3802 18.9928 22.3802 18.9582 22.4142V22.4483C18.9582 22.4823 18.9236 22.5163 18.9236 22.5503V22.5843C18.9582 22.7884 18.8199 22.9585 18.6469 23.0605C18.5085 23.1625 18.2663 23.2306 18.0933 23.1285C18.0241 23.0945 17.9203 23.0945 17.8512 23.1285C17.782 23.1625 17.7474 23.2646 17.7474 23.3666C17.782 23.5367 17.6782 23.7408 17.5398 23.8088C17.436 23.8768 17.3322 23.8768 17.2284 23.8428C17.1938 23.8088 17.1246 23.7748 17.09 23.7748C17.09 23.7748 17.09 23.7748 17.0554 23.7408C16.9862 23.6728 16.8825 23.6728 16.8133 23.7068C16.7441 23.7408 16.6749 23.8428 16.6749 23.9108C16.6749 24.0469 16.5711 24.183 16.4327 24.183C16.3635 24.183 16.3289 24.183 16.2251 24.1489C16.1905 24.1489 16.1213 24.1149 16.1213 24.1149C16.0521 24.0809 15.983 24.0129 15.8792 23.9789C15.81 23.9449 15.7408 23.9108 15.7062 23.9449C15.637 23.9449 15.6024 24.0129 15.5678 24.0809C15.464 24.319 15.1872 24.387 14.9797 24.387C14.7721 24.387 14.4953 24.319 14.3915 24.0809C14.3223 23.9789 14.2185 23.9449 14.1147 23.9789C14.011 24.0129 13.9418 24.1489 14.011 24.251C14.0456 24.319 14.011 24.4211 13.9418 24.4551C13.838 24.5571 13.6996 24.6251 13.5612 24.5571C13.2498 24.4551 13.1115 24.0809 13.1115 23.7748C13.0769 23.5707 13.1115 23.3326 13.146 23.0605C13.2498 23.1285 13.3882 23.1625 13.492 23.1285C13.5612 23.1285 13.665 23.0945 13.7342 23.0605C13.8726 23.2306 14.0801 23.3326 14.2877 23.3666C14.4607 23.4006 14.6337 23.3666 14.7721 23.2986C15.0143 23.4006 15.291 23.4006 15.5678 23.2986C15.81 23.1966 16.0175 23.0265 16.1213 22.7884C16.3981 22.8224 16.6749 22.7204 16.8825 22.5163C17.09 22.3462 17.1938 22.1421 17.263 21.9381C17.436 21.9381 17.609 21.904 17.7474 21.802C17.9203 21.7 18.0241 21.5639 18.0587 21.3938C18.3009 21.4279 18.5777 21.3598 18.8199 21.1898C19.0274 21.0537 19.2004 20.8496 19.235 20.6115C19.3042 20.6115 19.3734 20.6115 19.4426 20.6115C19.7194 20.5775 19.9961 20.3734 20.1345 20.1353C20.2729 19.8292 20.2729 19.5231 20.2037 19.251C20.2383 19.251 20.2729 19.217 20.3075 19.217C20.5497 19.1149 20.7572 18.8428 20.7918 18.5707C20.8264 18.4006 20.7918 18.2306 20.7918 18.0945C20.7918 17.9245 20.7572 17.7884 20.7918 17.6523C20.8264 17.5503 20.8956 17.4143 20.9648 17.3122C21.034 17.2102 21.0686 17.1081 21.1378 17.0061C21.2416 16.768 21.2416 16.4959 21.1378 16.3258C21.2762 16.2238 21.38 16.1217 21.4146 15.9177C21.4146 15.9177 21.4146 15.9177 21.4146 15.8836C21.5876 15.8836 21.7259 15.9177 21.8643 16.0197C21.8989 16.0537 21.9335 16.0537 21.9681 16.0877L22.0027 16.1217C22.1757 16.2578 22.3141 16.4619 22.3833 16.7V16.734C22.3833 16.802 22.4179 16.836 22.4179 16.904C22.4525 17.0741 22.4179 17.2782 22.3833 17.4483L22.2795 18.2986C22.2449 18.4687 22.2449 18.6728 22.1411 18.8088C22.0719 18.9108 21.9681 18.9789 21.8643 18.9449C21.7605 18.9108 21.6568 18.9449 21.6222 19.0129C21.553 19.0809 21.553 19.183 21.5876 19.285C21.6568 19.387 21.8989 19.8292 21.7259 20.1353C21.5876 20.4074 21.2762 20.5775 20.9994 20.5435C20.9302 20.5095 20.8264 20.5435 20.7918 20.6115ZM23.6979 12.9585C23.6287 13.1285 23.525 13.2646 23.4212 13.4347C22.9714 14.1489 22.5217 14.8632 22.0027 15.5435C21.8297 15.4755 21.6568 15.4074 21.4838 15.4074C21.4838 15.3734 21.5184 15.3394 21.5184 15.3054C21.553 15.2714 21.553 15.2034 21.5876 15.1694C21.6222 15.1013 21.6914 14.9993 21.7259 14.8972C21.7951 14.6251 21.6914 14.353 21.5876 14.1489C22.4525 13.4347 22.9022 12.4823 23.3174 11.5639L23.4558 11.2578C23.6633 11.3938 23.7671 11.666 23.8017 11.904C23.8709 12.2782 23.8363 12.6183 23.6979 12.9585ZM23.179 10.8156C23.1444 10.8496 23.1098 10.8836 23.1098 10.9517V10.9857C23.0752 11.0197 23.0752 11.0877 23.0406 11.1217L22.9022 11.3938C22.4871 12.2442 22.1065 13.1285 21.3454 13.7408C21.2416 13.5367 21.1378 13.3326 21.034 13.1625C21.207 12.8904 21.2762 12.5503 21.207 12.2102C21.1724 12.0741 21.1378 11.9721 21.0686 11.836C21.7605 11.1557 22.3487 10.3394 22.833 9.45507C22.9022 9.45507 22.9714 9.45507 23.0752 9.52309C23.2482 9.65915 23.3866 9.93126 23.352 10.2034C23.3174 10.4415 23.2482 10.6455 23.179 10.8156ZM22.7638 8.33262C22.7638 8.5367 22.6946 8.77479 22.5909 8.97888C22.1411 9.93126 21.5184 10.7816 20.7918 11.4959C20.7572 11.4619 20.7227 11.4619 20.7227 11.4279C20.7918 11.1898 20.7227 10.8836 20.5151 10.7136C20.3767 10.5775 20.1691 10.5095 19.9615 10.5095L22.0027 8.2986C22.0373 8.2986 22.0719 8.26459 22.0719 8.23058L22.1065 8.19656C22.2795 8.0265 22.4179 7.95847 22.5217 7.99248C22.66 7.99248 22.7638 8.16255 22.7638 8.33262ZM20.2037 11.0197C20.3075 11.1217 20.3075 11.2918 20.2383 11.3938C20.2037 11.4619 20.2037 11.5299 20.2037 11.5979C20.2383 11.6659 20.2729 11.7 20.3421 11.734C20.5497 11.802 20.7227 12.0401 20.7918 12.2782C20.861 12.5503 20.7918 12.7884 20.6189 12.9585C20.5497 13.0265 20.5497 13.1285 20.5843 13.2306C20.7918 13.5707 20.9994 13.9449 21.1724 14.319C21.2416 14.4891 21.3108 14.6591 21.2762 14.7612C21.2762 14.7952 21.2416 14.8632 21.207 14.9313C21.1724 14.9993 21.1378 15.0673 21.1032 15.1013C21.034 15.2374 21.034 15.4074 20.9994 15.5435C20.9994 15.6115 20.9994 15.6796 20.9648 15.7476C20.9302 15.8156 20.9302 15.8836 20.6881 15.9517C20.6189 15.9857 20.5497 16.0537 20.5497 16.1557C20.5497 16.2578 20.5843 16.3258 20.6881 16.3598C20.7918 16.3938 20.7918 16.5979 20.7227 16.768C20.6881 16.836 20.6535 16.9381 20.5843 17.0061C20.5151 17.1421 20.4113 17.2782 20.3767 17.4823C20.3075 17.6864 20.3421 17.8904 20.3421 18.0945C20.3421 18.2306 20.3767 18.3666 20.3421 18.4687C20.3421 18.5707 20.2383 18.7068 20.1345 18.7408L19.8923 18.7068H19.8577C19.8231 18.7068 19.8231 18.7068 19.7886 18.7408C19.7194 18.7748 19.6848 18.8768 19.6848 18.9789C19.754 19.319 19.8231 19.6251 19.6848 19.8972C19.6156 19.9993 19.4772 20.1013 19.3388 20.1353C19.2696 20.1353 19.2004 20.1353 19.1658 20.0673C19.0966 19.9993 18.9928 19.9653 18.889 19.9993C18.7853 20.0333 18.7507 20.1353 18.7507 20.2374C18.7853 20.4755 18.6469 20.6455 18.4739 20.7476C18.3355 20.8496 18.0933 20.9177 17.8858 20.8156C17.8166 20.7816 17.7128 20.7816 17.6436 20.8156C17.5744 20.8836 17.5398 20.9517 17.5744 21.0537C17.609 21.1557 17.5052 21.2578 17.436 21.3258C17.3322 21.3938 17.2284 21.4279 17.1246 21.3598C17.0554 21.2918 16.9516 21.2918 16.8825 21.3598C16.8133 21.3938 16.7787 21.4959 16.7787 21.5979C16.8133 21.768 16.7441 21.9721 16.5711 22.1081C16.3981 22.2442 16.1905 22.3122 16.0175 22.2442C15.9484 22.2102 15.8792 22.2102 15.81 22.2782C15.7408 22.3122 15.7062 22.3802 15.7062 22.4483C15.7062 22.6183 15.5678 22.7544 15.3602 22.8224C15.1872 22.8904 14.9797 22.8904 14.8413 22.7884C14.8067 22.7544 14.7375 22.7204 14.7029 22.7204H14.6683C14.5991 22.7204 14.5299 22.7544 14.4953 22.8224C14.4607 22.8904 14.3569 22.8564 14.3223 22.8564C14.1839 22.8224 14.011 22.7204 13.9764 22.6183C13.9418 22.5163 13.8726 22.4483 13.8034 22.4483H13.7688C13.6996 22.4483 13.6304 22.4823 13.5958 22.5503C13.5612 22.5843 13.5266 22.6183 13.4574 22.6183C13.3882 22.6183 13.319 22.5843 13.2498 22.5163C13.146 22.4142 13.146 22.1762 13.146 21.904C13.146 21.2918 13.146 20.6455 13.2498 20.0333C13.2498 19.9653 13.2844 19.8972 13.319 19.8292C13.3536 19.7612 13.4574 19.6932 13.5958 19.6591C14.6337 19.217 15.9484 18.6728 16.5711 17.5163C16.8825 16.904 16.9516 16.2578 17.0208 15.6115C17.0554 15.4074 17.0554 15.2034 17.09 14.9993L17.1246 14.7272C17.1246 14.6591 17.1592 14.5571 17.1592 14.4891C17.4706 13.2306 18.4047 12.2102 19.2696 11.2918L19.5464 10.9857C19.6156 11.0537 19.754 11.0537 19.8231 10.9857C19.9269 10.9177 20.0999 10.9517 20.2037 11.0197ZM19.6848 8.70677C19.7194 8.74078 19.754 8.74078 19.7886 8.77479L19.8231 8.80881C19.8923 8.84282 19.9269 8.91085 19.9615 8.97888C20.0999 9.21697 20.1345 9.52309 20.0999 9.76119L18.9582 11.0197C18.1625 11.904 17.2284 12.8904 16.8479 14.1149L16.8133 14.0469C16.7787 13.9789 16.7441 13.9108 16.7095 13.8428L16.6749 13.7748C16.6403 13.7068 16.6057 13.6387 16.5365 13.5367L16.3981 13.2646C16.8479 12.4823 18.8199 10.0333 18.8545 10.0333C19.1658 9.62514 19.4426 9.18296 19.6848 8.70677ZM21.1724 24.6932C20.8956 24.7272 20.6189 24.5911 20.3767 24.319C20.1691 24.0809 19.9961 23.7408 19.8577 23.4347C19.7886 23.2986 19.7194 23.1625 19.6502 22.9925L19.581 22.7884C19.8231 22.7544 20.0653 22.5843 20.2037 22.3802C20.2383 22.3122 20.2729 22.2442 20.3075 22.1421C20.4805 22.4142 20.6535 22.6864 20.8264 22.8904C21.1378 23.2646 21.4492 23.5367 21.7605 23.6728C21.8297 23.9108 21.8297 24.1489 21.6914 24.353C21.5876 24.5571 21.38 24.6591 21.1724 24.6932ZM27.9187 7.82241C27.9187 7.85643 27.8841 7.85643 27.8841 7.85643C27.8149 7.99248 27.7111 8.12854 27.6419 8.26459C27.5727 8.36663 27.5035 8.46867 27.4344 8.57071C27.1576 8.97888 26.9154 9.42105 26.7078 9.86323C26.2581 10.6455 25.8083 11.4619 25.2202 12.1421C25.151 12.2102 25.0818 12.2782 25.0126 12.3462C24.8742 12.5163 24.7012 12.6864 24.5629 12.8564C24.4937 12.7204 24.3899 12.6183 24.2515 12.5503C24.2861 12.3122 24.2861 12.0741 24.2515 11.87C24.2169 11.734 24.1823 11.6319 24.1477 11.4959C25.7737 9.72717 27.0884 7.75439 28.0571 5.5435C28.2993 5.95167 28.4376 6.59792 28.2993 7.00609C28.2301 7.31221 28.0571 7.61833 27.9187 7.82241ZM20.5843 21.734C20.7227 21.734 20.861 21.666 20.9994 21.5979C21.1032 21.5299 21.207 21.3938 21.2416 21.2578C21.7605 21.734 22.2795 22.2102 22.7984 22.6523C22.9022 22.8224 22.833 23.1966 22.7292 23.2646C22.5909 23.3666 22.3487 23.4006 22.1065 23.3326C21.7951 23.2306 21.4838 22.9925 21.1724 22.6183C20.9994 22.3802 20.7572 22.0401 20.5843 21.734ZM22.1411 20.3054C22.2449 20.1353 22.2449 19.9313 22.2449 19.6932C22.3141 19.7272 22.3833 19.7952 22.4525 19.8632L23.1444 20.4755C23.3174 20.6455 23.4904 20.8156 23.6633 20.9857C23.6979 21.0197 23.7325 21.0537 23.7325 21.0877L23.7671 21.1217C23.9055 21.2918 23.9747 21.4619 23.9747 21.6319C24.0093 21.87 23.9401 22.1081 23.7671 22.2442C23.6287 22.3802 23.3174 22.4142 23.1444 22.3122C22.5909 21.87 22.0373 21.3598 21.5184 20.8496C21.7951 20.7816 22.0373 20.5435 22.1411 20.3054ZM24.3207 20.5095C24.2515 20.6115 24.1477 20.7136 24.0093 20.7136C23.8363 20.5095 23.6287 20.3054 23.4558 20.1353L22.7638 19.5231C22.6255 19.387 22.4871 19.319 22.3487 19.217C22.4179 19.1489 22.4871 19.0809 22.5217 19.0129C22.66 18.7748 22.6946 18.5367 22.7292 18.3326V18.2306C23.0406 18.3666 23.5942 18.6047 23.7671 18.7748C23.9747 18.9789 24.1477 19.217 24.2515 19.4891C24.2515 19.4891 24.2515 19.5231 24.2861 19.5571V19.5911C24.3207 19.6932 24.3553 19.8292 24.3899 19.9313C24.4245 20.1694 24.3899 20.3734 24.3207 20.5095ZM24.632 19.1489C24.4937 18.8768 24.3207 18.6387 24.1131 18.4347C23.8709 18.2306 23.3174 17.9925 22.9368 17.8224L22.833 17.7884L22.8676 17.5163C22.9022 17.3122 22.9368 17.0741 22.9022 16.87C22.9022 16.87 22.9022 16.87 22.9022 16.836C23.1444 16.836 23.4904 16.9381 23.8363 17.1081C23.9747 17.1762 24.1131 17.2442 24.2515 17.3462C24.2515 17.3462 24.2861 17.3462 24.2861 17.3802L24.3207 17.4142L24.3553 17.4483C24.4937 17.5503 24.632 17.6183 24.7358 17.7204C25.0126 17.9585 25.151 18.2986 25.151 18.5707C25.151 18.7068 24.8742 19.0129 24.632 19.1489ZM25.2548 17.5503C25.1856 17.4823 25.1164 17.4142 25.0472 17.3462C24.9434 17.2442 24.8396 17.1421 24.6666 17.0741L25.0126 16.4279C25.151 16.1557 25.324 15.7816 25.3932 15.4074C26.2581 14.4211 26.9846 13.4006 27.6419 12.3122C27.7457 13.1285 27.7111 14.183 27.4689 14.7952C26.9846 15.9177 26.0505 16.802 25.2548 17.5503ZM25.324 14.7612C25.2548 14.5911 25.151 14.4551 25.0126 14.353C24.9088 14.285 24.7704 14.217 24.5974 14.217C24.632 14.0129 24.6666 13.8088 24.6666 13.6387C24.7358 13.2306 25.0472 12.9245 25.3586 12.6183C25.4278 12.5503 25.497 12.4823 25.5661 12.3802C26.2235 11.666 26.6732 10.8156 27.123 9.99928C27.3652 9.59112 27.5727 9.14894 27.8495 8.74078C27.9187 8.63874 27.9879 8.5367 28.0225 8.43466C28.0917 8.33262 28.1609 8.23058 28.1955 8.12854C28.2301 8.16255 28.2647 8.19656 28.2993 8.23058C28.7144 8.91085 28.3339 9.86323 28.0225 10.5095C27.296 12.0741 26.3965 13.4347 25.324 14.7612ZM23.9401 11.0877C23.8709 10.9857 23.7671 10.9177 23.6633 10.8496C23.7325 10.6455 23.8017 10.4415 23.8017 10.2714C23.8363 9.93126 23.7325 9.59112 23.5596 9.38704C25.151 7.31221 26.95 4.96527 27.7111 2.10813C28.0225 2.14214 28.2647 2.34622 28.3685 2.72037C28.4722 3.16255 28.3339 3.63874 28.1609 4.08092C27.2268 6.66595 25.8083 9.0469 23.9401 11.0877ZM24.0439 4.69316L21.7605 7.92445C21.726 7.95847 21.6914 7.99248 21.6568 8.0265L20.5151 9.25099C20.4805 9.0469 20.4113 8.87684 20.3075 8.70677C20.2729 8.67275 20.2729 8.63874 20.2383 8.60473C21.7605 6.80201 23.1444 4.82922 24.2861 2.75439C24.4591 2.48228 24.5629 2.24418 24.6666 2.00609C24.7358 2.0401 24.8396 2.17616 24.8742 2.31221C25.1164 3.09452 24.5629 3.94486 24.0439 4.69316ZM23.9055 2.5503C22.7638 4.59112 21.4146 6.5299 19.8923 8.2986C19.8923 8.2986 19.8577 8.2986 19.8577 8.26459C20.1691 7.44826 19.9615 7.0401 19.6848 6.87003C19.6156 6.80201 19.5118 6.76799 19.4426 6.76799C20.6881 5.20337 21.7605 3.5367 22.5909 1.73398L22.6255 1.69996C22.7638 1.42786 22.9022 1.12173 23.1098 0.883638C23.3174 0.645543 23.6287 0.543502 23.8709 0.611529C24.2169 0.71357 24.3553 1.08772 24.3553 1.42786C24.3207 1.80201 24.1477 2.17616 23.9055 2.5503ZM19.3042 8.43466C19.062 8.94486 18.7853 9.35303 18.4739 9.72718C18.4047 9.82922 16.7441 11.836 16.1213 12.7884L15.9138 12.4143C15.8792 12.3462 15.8446 12.2782 15.81 12.2102L15.7754 12.1421C15.7408 12.0401 15.7062 11.9721 15.637 11.87C15.637 11.836 15.6024 11.802 15.6024 11.768V11.734C15.9138 11.3258 16.3981 10.6115 16.8133 9.96527C17.2976 9.25099 17.8166 8.46867 18.0933 8.09452C18.2663 7.85643 18.4739 7.58432 18.7161 7.41425C18.7853 7.38024 18.8545 7.34622 18.9236 7.31221C18.9582 7.31221 18.9928 7.31221 19.0274 7.2782C19.1312 7.24418 19.3042 7.21017 19.408 7.31221C19.7194 7.44826 19.5118 7.99248 19.3042 8.43466ZM13.4228 2.95847C13.4228 3.06051 13.2844 3.16255 13.1115 3.26459C12.9385 3.2986 12.7309 3.36663 12.5579 3.43466C12.5925 3.33262 12.5925 3.23058 12.5925 3.12854C12.6271 2.92445 12.6617 2.61833 12.6617 2.34622C13.4228 2.68636 13.4228 2.92445 13.4228 2.95847ZM7.05709 1.97207C8.71771 1.90405 10.5167 1.90405 12.1774 1.97207C12.2119 2.34622 12.1773 2.72037 12.1428 3.06051C12.0736 3.43466 12.0044 3.80881 11.866 4.14894C11.3816 5.10133 10.067 5.57752 8.99448 5.20337C7.95659 4.82922 7.19547 3.80881 7.05709 2.61833C6.98789 2.38024 7.02249 2.17616 7.05709 1.97207ZM9.65181 0.441461H9.72101C10.4475 0.441461 11.693 0.61153 12.0736 1.49588C11.2087 1.46187 10.3437 1.42786 9.47883 1.42786C8.71771 1.42786 7.95659 1.42786 7.23007 1.46187C7.29926 1.32582 7.36845 1.22377 7.47224 1.12173C7.8874 0.679557 8.64852 0.441461 9.65181 0.441461Z" fill="#489FDF"/>
<path d="M9.47952 11.5306C9.6871 11.4285 9.82548 11.2585 9.89468 11.0204C10.1714 11.0204 10.4136 10.9863 10.6904 10.9183C10.7942 10.8843 10.898 10.7823 10.8634 10.6462C10.8288 10.5442 10.725 10.4421 10.5866 10.4761C9.99847 10.6122 9.37573 10.5782 8.82219 10.4081C8.7184 10.3741 8.61461 10.4081 8.54542 10.5102C8.40703 10.7823 8.44163 11.1224 8.64921 11.3605C8.78759 11.4965 8.99517 11.5986 9.20275 11.5986C9.27194 11.5986 9.37573 11.5986 9.47952 11.5306ZM9.41033 11.0204C9.37573 11.0884 9.34113 11.1224 9.27194 11.1564C9.16815 11.1904 9.02977 11.1904 8.92598 11.0884C8.89138 11.0544 8.85679 10.9863 8.85679 10.9183C9.06436 10.9523 9.23735 10.9863 9.41033 11.0204Z" fill="#489FDF"/>
<path d="M18.5784 13.2993C18.5092 13.3333 18.4746 13.3673 18.44 13.4013C18.4054 13.4694 18.4054 13.5034 18.44 13.5714C18.7168 14.4557 18.786 15.4081 18.5784 16.3605L18.5092 16.6666C18.2324 17.8231 17.6097 18.8775 16.7794 19.6258C16.0183 20.3061 14.7728 20.9183 13.7349 20.4081C13.6657 20.3741 13.6311 20.3741 13.5619 20.4081C13.4927 20.4421 13.4581 20.4762 13.4235 20.5102C13.3543 20.6122 13.4235 20.7483 13.5273 20.8163C13.8387 20.9523 14.1846 21.0544 14.5652 21.0544C15.3955 21.0544 16.3296 20.6462 17.0907 19.966C17.9557 19.1836 18.613 18.1632 18.9244 16.9728L18.9935 16.6666C19.2357 15.5782 19.2011 14.4557 18.8552 13.4353C18.8206 13.3333 18.6822 13.2653 18.5784 13.2993Z" fill="#489FDF"/>
<path d="M10.8289 13.4694C10.8635 13.0953 10.6905 12.5851 9.58344 12.2789C9.47965 12.2449 9.34126 12.3129 9.30667 12.415C9.27207 12.517 9.34126 12.6531 9.44505 12.6871C9.79102 12.7891 10.3792 12.9932 10.3446 13.3674C10.31 13.7415 9.75642 14.1497 9.65263 14.1837C9.58344 14.1837 9.54884 14.2177 9.47965 14.2517C9.44505 14.2857 9.41046 14.3538 9.41046 14.4218C9.41046 14.5578 9.51425 14.6259 9.65263 14.6259C9.9986 14.6259 10.7597 14.0816 10.8289 13.4694Z" fill="#489FDF"/>
<path d="M13.389 15.102C13.6657 15.034 14.0809 14.7278 14.2885 14.3537C14.4269 14.0816 14.5306 13.6394 14.2193 13.0952C14.0463 12.8231 13.7003 12.687 13.4236 12.7891C13.3544 12.7891 13.3198 12.8571 13.2852 12.8911C13.2506 12.9591 13.2506 12.9931 13.2506 13.0612C13.2852 13.1292 13.3198 13.1632 13.3544 13.1972C13.4236 13.2312 13.4582 13.2312 13.5273 13.1972C13.6311 13.1632 13.7695 13.2312 13.8041 13.3333C13.9771 13.6054 14.0117 13.8775 13.8733 14.1496C13.8041 14.3197 13.6657 14.4217 13.5619 14.5238C13.5619 14.1496 13.3544 13.7074 12.9738 13.2993C12.9392 13.2653 12.87 13.2312 12.8354 13.2312C12.7662 13.2312 12.7316 13.2312 12.6624 13.2993C12.6278 13.3333 12.5932 13.4013 12.5932 13.4353C12.5932 13.5034 12.5932 13.5374 12.6624 13.6054C13.0776 14.0476 13.216 14.4557 13.1122 14.7619C13.043 14.9659 12.87 15.102 12.7316 15.204C12.7316 14.9659 12.697 14.7278 12.5932 14.4897C12.5932 14.4897 12.3165 13.9115 12.0397 13.7755C11.9705 13.7414 11.9359 13.7414 11.8667 13.7755C11.7975 13.8095 11.7629 13.8435 11.7629 13.9115C11.7283 13.9795 11.7283 14.0136 11.7629 14.0816C11.7975 14.1496 11.8321 14.1836 11.9013 14.1836C11.9705 14.2176 12.1781 14.5238 12.2127 14.6598C12.3511 14.9659 12.3511 15.204 12.2819 15.4421C12.2473 15.4761 12.2473 15.5102 12.2473 15.5442C12.2127 15.6122 12.1781 15.6462 12.1435 15.6802C12.0397 15.8163 11.9013 15.8843 11.7975 15.9183C11.7975 15.7142 11.7975 15.4421 11.6937 15.204C11.5554 14.8639 11.3478 14.6598 11.071 14.5238C11.0018 14.4897 10.9672 14.4897 10.898 14.5238C10.8288 14.5578 10.7942 14.5918 10.7596 14.6598C10.725 14.7278 10.725 14.7619 10.7596 14.8299C10.7942 14.8979 10.8288 14.9319 10.898 14.9659C11.1056 15.034 11.2094 15.238 11.2786 15.3741C11.3824 15.6462 11.3824 15.9523 11.3478 16.0884C11.3132 16.1224 11.2786 16.1564 11.2786 16.1904C11.1748 16.3265 11.0364 16.4285 10.898 16.4966C10.7596 16.5306 10.5867 16.5646 10.3791 16.4625C10.3099 16.4285 10.2753 16.4285 10.2061 16.4625C10.1369 16.4966 10.1023 16.5306 10.0677 16.5646C9.99852 16.6666 10.0677 16.8027 10.1715 16.8707C10.3445 16.9387 10.5175 17.0068 10.6904 17.0068C10.8288 17.0068 10.9326 16.9727 11.0364 16.9387C11.2786 16.8707 11.4862 16.7006 11.6591 16.4625C11.9013 16.4285 12.2819 16.2585 12.5241 15.9863C12.5932 15.9183 12.6278 15.8503 12.697 15.7483C12.7662 15.6802 13.1814 15.4421 13.389 15.102Z" fill="#489FDF"/>
</g>
<defs>
<clipPath id="clip0_35_245">
<rect width="126" height="40" fill="white"/>
</clipPath>
</defs>
</svg>
